<svg width="29" height="23" viewBox="0 0 29 23" fill="none" xmlns="http://www.w3.org/2000/svg">
<path d="M26.8916 9.95109C27.747 9.95109 28.4405 10.6446 28.4405 11.5C28.4405 12.3554 27.747 13.0489 26.8916 13.0489V9.95109ZM1.01374 12.5952C0.408857 11.9904 0.408857 11.0096 1.01374 10.4048L10.871 0.54753C11.4759 -0.0573578 12.4566 -0.0573578 13.0615 0.54753C13.6663 1.15242 13.6663 2.13314 13.0615 2.73802L4.29949 11.5L13.0615 20.262C13.6663 20.8669 13.6663 21.8476 13.0615 22.4525C12.4566 23.0574 11.4759 23.0574 10.871 22.4525L1.01374 12.5952ZM26.8916 13.0489H2.10899V9.95109H26.8916V13.0489Z" fill="#383634"/>
</svg>
