<svg width="516" height="858" viewBox="0 0 516 858" fill="none" xmlns="http://www.w3.org/2000/svg">
<rect x="8.67227" y="8.67227" width="498.655" height="840.181" rx="249.328" fill="#C94F35" stroke="#F8EFD3" stroke-width="17.3445"/>
<path d="M256.784 143.093V150.39V156.471M256.784 156.471L253.136 158.904L251.114 160.252C250.032 160.973 249.024 161.799 248.104 162.719L246.622 164.202C246.103 164.72 245.671 165.32 245.343 165.976L244.744 167.173C244.664 167.334 244.622 167.511 244.622 167.69V167.69C244.622 168.613 245.651 169.164 246.419 168.652L247.817 167.72C248.114 167.522 248.355 167.249 248.515 166.929L248.836 166.288C249.235 165.489 250.051 164.985 250.943 164.985V164.985C251.568 164.985 252.168 165.233 252.61 165.675L252.793 165.859C253.02 166.086 253.209 166.347 253.352 166.634L253.631 167.192C254.105 168.14 254.352 169.185 254.352 170.245V172.282V175.071C254.352 175.622 254.133 176.15 253.744 176.539V176.539C253.354 176.929 252.826 177.147 252.276 177.147H251.586C251.006 177.147 250.433 177.282 249.913 177.542L248.271 178.364V178.364C246.66 179.169 245.189 180.229 243.915 181.503L242.291 183.127C241.415 184.003 240.454 184.791 239.422 185.479V185.479C238.03 186.407 236.52 187.145 234.933 187.674L230.097 189.286C230.051 189.302 230.002 189.31 229.954 189.31V189.31C229.453 189.31 229.32 190 229.785 190.186L233.364 191.617C233.568 191.699 233.746 191.835 233.877 192.011L236.093 194.965C236.91 196.054 237.878 197.022 238.967 197.838L240.936 199.316C241.766 199.938 242.692 200.423 243.676 200.751L245.631 201.403C245.767 201.448 245.891 201.525 245.993 201.627V201.627C246.481 202.114 246.285 202.945 245.631 203.163L243.738 203.794C243.518 203.867 243.287 203.904 243.055 203.904H237.325H229.85C229.213 203.904 228.631 204.264 228.346 204.834V204.834C227.931 205.664 228.268 206.673 229.098 207.089L229.866 207.473C229.973 207.526 230.07 207.596 230.155 207.68V207.68C230.69 208.216 230.544 209.119 229.866 209.458L228.811 209.986V209.986C227.211 210.785 225.447 211.202 223.659 211.202H222.73H220.297V211.202C219.933 211.202 219.79 211.674 220.093 211.876L222.588 213.539C222.682 213.602 222.784 213.652 222.892 213.688L226.379 214.851V214.851C228.795 215.656 231.326 216.067 233.873 216.067H236.108V216.067C236.914 216.067 237.714 216.197 238.478 216.451L239.342 216.739C240.415 217.097 241.39 217.699 242.19 218.499V218.499L242.529 218.839C243.685 219.995 243.685 221.869 242.529 223.025V223.025C242.304 223.249 242.045 223.437 241.76 223.579L239.757 224.58V224.58C238.157 225.38 236.394 225.797 234.605 225.797H233.676H228.203C226.22 225.797 224.282 226.383 222.633 227.483V227.483C221.89 227.978 221.085 228.372 220.238 228.654L219.544 228.886C218.43 229.257 217.37 229.776 216.392 230.427V230.427C214.955 231.385 213.345 232.052 211.652 232.391L210.164 232.688C208.815 232.958 207.442 233.094 206.066 233.094H203.27V233.094C202.821 233.094 202.597 233.637 202.914 233.954L203.27 234.31V234.31C204.881 235.921 206.742 237.262 208.779 238.281L210.568 239.175L214.999 241.834C216.097 242.493 217.246 243.063 218.435 243.539V243.539C221.272 244.673 224.3 245.256 227.355 245.256H230.027L243.689 246.395C244.31 246.447 244.934 246.441 245.554 246.379L251.944 245.74C254.535 245.481 256.784 247.517 256.784 250.121V250.121V250.4C256.784 251.72 256.039 252.927 254.858 253.517L254.785 253.553C254.498 253.697 254.236 253.886 254.01 254.112V254.112C253.45 254.672 252.691 254.986 251.9 254.986H249.487H245.018C244.423 254.986 244.125 255.705 244.545 256.126V256.126C244.596 256.177 244.655 256.219 244.719 256.251L247.055 257.419L247.767 257.775C248.912 258.347 250.097 258.838 251.311 259.243L252.35 259.589C252.873 259.764 253.383 259.975 253.877 260.222L255.135 260.851C255.422 260.994 255.684 261.183 255.911 261.41V261.41C256.47 261.969 256.784 262.728 256.784 263.519V264.108C256.784 265.276 256.32 266.396 255.494 267.222L255.327 267.39C254.689 268.028 253.89 268.48 253.015 268.699L250.984 269.207C249.99 269.455 248.969 269.581 247.944 269.581H238.541H232.46H231.244V269.581C231.02 269.581 230.969 269.895 231.181 269.966L233.598 270.771C233.65 270.789 233.699 270.812 233.744 270.843L236.166 272.457C236.935 272.97 237.769 273.378 238.645 273.67L240.736 274.367C240.892 274.419 241.034 274.506 241.15 274.623V274.623C241.662 275.134 241.522 275.996 240.875 276.32L240.111 276.702C239.878 276.818 239.622 276.878 239.362 276.878H236.108L222.73 278.095H222.374C221.823 278.095 221.295 278.313 220.906 278.703V278.703C220.516 279.092 219.988 279.311 219.437 279.311H216.649H213.707C212.433 279.311 211.168 279.106 209.959 278.703L208.243 278.131C208.172 278.107 208.097 278.095 208.021 278.095V278.095C207.327 278.095 207.054 278.995 207.632 279.381L209.24 280.453C209.314 280.502 209.393 280.544 209.476 280.577L215.432 282.96L221.514 285.392L223.916 286.193C227.135 287.266 230.06 289.074 232.46 291.473V291.473V291.473C233.089 292.102 232.985 293.15 232.245 293.643L230.497 294.809C230.204 295.004 230.027 295.334 230.027 295.686V295.686C230.027 296.086 230.253 296.451 230.61 296.63L232.209 297.429C232.376 297.512 232.549 297.584 232.726 297.643L233.88 298.028C235.361 298.521 236.892 298.849 238.446 299.004L248.271 299.987H250.824C251.525 299.987 252.198 300.265 252.694 300.762V300.762C252.985 301.052 253.203 301.406 253.333 301.795L253.856 303.365C254.185 304.35 254.352 305.381 254.352 306.419V319.447V319.447C254.352 322.561 253.115 325.549 250.912 327.751L250.703 327.96V327.96C249.146 329.518 247.033 330.393 244.831 330.393H233.676H227.152C225.827 330.393 224.504 330.299 223.192 330.111L218.905 329.499C217.421 329.287 215.908 329.423 214.486 329.897V329.897C213.502 330.225 212.471 330.393 211.433 330.393H205.703H198.405V330.393C197.677 330.393 197.39 331.338 197.997 331.742L199.315 332.621C199.515 332.754 199.75 332.825 199.99 332.825H203.37C204.113 332.825 204.854 332.892 205.585 333.025L217.865 335.258L230.472 337.55C230.978 337.642 231.499 337.605 231.988 337.442L233.068 337.082C234.075 336.746 235.164 337.291 235.5 338.298V338.298C235.836 339.306 235.292 340.395 234.284 340.731L232.725 341.25C232.548 341.309 232.367 341.354 232.184 341.385L225.162 342.555L219.081 343.771L214.36 345.12C211.844 345.839 209.24 346.204 206.624 346.204H203.621C202.583 346.204 201.552 346.371 200.568 346.699L199.59 347.025C198.811 347.285 198.103 347.722 197.522 348.303V348.303C196.53 349.295 195.185 349.852 193.782 349.852H187.459H180.499C180.283 349.852 180.076 349.938 179.923 350.091V350.091C179.485 350.529 179.679 351.278 180.275 351.449L186.893 353.339C187.269 353.447 187.631 353.599 187.97 353.793L195 357.81C195.641 358.177 196.352 358.404 197.087 358.477L201.778 358.947C204.319 359.201 205.424 362.294 203.618 364.1V364.1C203.387 364.33 203.196 364.596 203.05 364.887L202.102 366.783C202.07 366.847 202.028 366.905 201.977 366.956V366.956C201.557 367.377 201.855 368.096 202.449 368.096H206.494C206.775 368.096 207.054 368.045 207.317 367.947L215.707 364.8C216.316 364.572 216.985 364.559 217.603 364.765V364.765C219.091 365.261 219.895 366.87 219.399 368.358L219.13 369.167C219.098 369.263 219.081 369.364 219.081 369.465V369.465C219.081 370.306 220.098 370.728 220.693 370.133L221.323 369.503C221.449 369.377 221.599 369.278 221.764 369.212L227.595 366.88L233.335 364.583C233.56 364.493 233.8 364.447 234.043 364.447H237.295C238.083 364.447 238.418 365.451 237.787 365.925V365.925C237.088 366.449 237.584 367.558 238.441 367.386L240.766 366.921C240.904 366.894 241.044 366.887 241.183 366.903L247.084 367.559C249.837 367.864 251.919 370.191 251.919 372.961V372.961V379.971C251.919 381.76 251.503 383.523 250.703 385.123V385.123V385.123C249.936 386.658 248.503 387.752 246.82 388.089L243.406 388.772L235.662 390.984C235.151 391.13 234.623 391.204 234.092 391.204H221.909C221.314 391.204 221.016 391.923 221.437 392.344V392.344C221.488 392.395 221.546 392.437 221.611 392.469L223.946 393.637L226.462 394.895C227.43 395.379 227.43 396.76 226.462 397.244V397.244C226.406 397.271 226.349 397.295 226.29 397.315L224.644 397.863C223.37 398.288 222.064 398.613 220.739 398.833L215.432 399.718L207.022 400.919C206.953 400.929 206.884 400.934 206.815 400.934H206.206C205.123 400.934 204.58 402.244 205.346 403.01V403.01C205.574 403.238 205.884 403.367 206.206 403.367H206.576C206.803 403.367 207.029 403.403 207.244 403.475L210.568 404.583L213.905 405.695C214.11 405.763 214.296 405.879 214.449 406.031L214.572 406.155C215.047 406.63 215.047 407.4 214.572 407.875V407.875C214.344 408.103 214.035 408.232 213.712 408.232H212.341C211.971 408.232 211.602 408.277 211.243 408.367L207.222 409.372C207.021 409.422 206.831 409.506 206.659 409.621V409.621C205.358 410.489 205.704 412.489 207.222 412.868L208.102 413.088C208.124 413.094 208.147 413.096 208.169 413.096V413.096C208.464 413.096 208.558 413.493 208.294 413.625L207.176 414.184C207.014 414.265 206.824 414.265 206.662 414.184L204.789 413.248C204.588 413.147 204.379 413.061 204.165 412.989L203.375 412.726C201.694 412.166 199.935 411.88 198.163 411.88H197.189H186.95C185.676 411.88 184.411 412.086 183.202 412.488L181.423 413.081C181.393 413.091 181.362 413.096 181.33 413.096V413.096C180.984 413.096 180.923 413.591 181.259 413.675L183.81 414.313L188.792 416.305C189.523 416.598 190.222 416.965 190.877 417.402L195.837 420.709C196.656 421.255 197.722 421.255 198.541 420.709L198.965 420.426C199.959 419.763 201.31 420.122 201.844 421.191L201.96 421.422C202.022 421.546 202.054 421.682 202.054 421.82V421.82C202.054 422.354 202.522 422.768 203.053 422.701L211.164 421.688C211.576 421.636 211.985 421.553 212.385 421.438L214.807 420.746C218.45 419.706 222.219 419.178 226.007 419.178H228.811V419.178C229.904 419.178 230.333 420.595 229.424 421.202L228.811 421.61L225.162 424.043L223.521 424.863C222.331 425.458 222.455 427.194 223.716 427.615V427.615C223.869 427.665 224.028 427.691 224.188 427.691H230.713C232.686 427.691 234.656 427.551 236.61 427.272L238.382 427.019C240.915 426.657 243.411 426.068 245.838 425.259V425.259L250.02 423.586C251.093 423.157 252.317 423.622 252.835 424.657V424.657C253.031 425.049 253.107 425.491 253.052 425.927L252.515 430.224C252.143 433.201 250.308 435.794 247.625 437.136V437.136C247.245 437.326 246.852 437.488 246.45 437.623L245.621 437.899C244.149 438.39 242.735 439.04 241.404 439.838L241.264 439.922C238.664 441.482 235.778 442.507 232.776 442.936L231.793 443.076C229.811 443.359 227.865 443.857 225.991 444.56L219.081 447.151V447.151C215.85 447.959 212.532 448.367 209.202 448.367H197.189V448.367C195.576 448.367 194.863 450.399 196.123 451.406L198.047 452.946C198.284 453.135 198.552 453.281 198.84 453.377L202.868 454.72C204.671 455.321 206.131 456.664 206.88 458.411L208.28 461.679C208.882 463.082 208.285 464.711 206.919 465.394V465.394L205.317 466.195C203.171 467.268 200.805 467.827 198.405 467.827V467.827H186.243H178.945V467.827C177.599 467.827 176.925 469.455 177.877 470.407L178.411 470.941C178.753 471.283 179.217 471.476 179.701 471.476H181.378C182.935 471.476 184.429 472.094 185.53 473.196L187.459 475.124L190.248 477.913C190.565 478.23 190.34 478.773 189.892 478.773V478.773C189.443 478.773 189.218 479.316 189.535 479.633L189.797 479.895C189.858 479.955 189.94 479.989 190.025 479.989V479.989C190.398 479.989 190.472 480.518 190.113 480.621L183.926 482.389C183.849 482.411 183.77 482.425 183.691 482.432L169.216 483.638H161.138C160.528 483.638 160.223 484.375 160.654 484.806V484.806C160.686 484.838 160.721 484.867 160.758 484.892L161.83 485.606C163.491 486.713 165.372 487.444 167.345 487.747L174.533 488.853C178.272 489.428 182.066 489.546 185.833 489.204L193.54 488.503H205.504C207.255 488.503 209.003 488.648 210.73 488.935V488.935C213.848 489.455 217.025 489.507 220.158 489.089L227.222 488.147C231.484 487.579 235.596 486.19 239.33 484.056L241.745 482.676C242.041 482.507 242.352 482.367 242.676 482.26L248.333 480.374C248.901 480.185 249.487 480.607 249.487 481.205V481.205V486.07V489.897C249.487 491.38 249.142 492.842 248.479 494.169V494.169C247.554 496.017 246.055 497.516 244.207 498.441L239.035 501.026C237.896 501.596 236.719 502.083 235.511 502.486L231.855 503.705C230.639 504.11 229.389 504.405 228.12 504.586L224.206 505.146C222.453 505.396 220.665 505.106 219.081 504.314V504.314C217.497 503.522 215.71 503.232 213.956 503.482L208.135 504.314L188.675 505.53L182.594 506.746L181.194 507.213C180.78 507.351 180.879 507.963 181.316 507.963V507.963C181.357 507.963 181.398 507.969 181.437 507.982L185.027 509.179L185.401 509.304C189.986 510.832 194.788 511.611 199.621 511.611V511.611L214.216 512.828V512.828C214.665 512.828 214.89 513.37 214.572 513.688L214.394 513.866C214.28 513.98 214.126 514.044 213.964 514.044H202.054L193.943 514.855C191.246 515.125 188.571 515.59 185.941 516.248L185.027 516.476V516.476C182.61 517.282 180.079 517.692 177.532 517.692H175.515C173.755 517.692 172.001 517.477 170.293 517.05V517.05C168.768 516.668 167.29 516.122 165.885 515.419L163.134 514.044V514.044C162.472 513.713 161.8 514.474 162.211 515.09L162.974 516.236C163.079 516.393 163.224 516.521 163.393 516.605L164.873 517.346C165.334 517.576 165.77 517.855 166.173 518.177L171.648 522.557L173.746 524.656C174.509 525.418 174.3 526.704 173.336 527.187V527.187C173.03 527.34 172.782 527.588 172.629 527.894L172.192 528.767C171.859 529.434 171.177 529.855 170.432 529.855V529.855H176.869C177.42 529.855 177.948 529.636 178.337 529.247V529.247C178.727 528.857 179.255 528.639 179.805 528.639H186.109C187.782 528.639 189.418 528.143 190.81 527.215V527.215C191.808 526.55 192.936 526.104 194.118 525.907L199.621 524.99L204.328 524.318C206.861 523.956 209.356 523.367 211.784 522.557V522.557L218.193 520.421C218.63 520.275 219.081 520.601 219.081 521.062V521.062C219.081 521.241 219.01 521.412 218.883 521.539L217.532 522.891C216.951 523.471 216.243 523.909 215.464 524.169L213.844 524.708C213.282 524.896 212.734 525.123 212.204 525.388L207.817 527.581C206.412 528.284 204.934 528.831 203.409 529.212V529.212C201.701 529.639 199.947 529.855 198.187 529.855H196.815C194.652 529.855 192.508 530.268 190.5 531.071L189.718 531.384C188.226 531.981 186.634 532.287 185.027 532.287V532.287M256.784 156.471V158.152C256.784 158.646 256.899 159.134 257.121 159.576L257.636 160.606C257.859 161.054 258.317 161.336 258.817 161.336V161.336C259.078 161.336 259.333 161.413 259.55 161.558L261.966 163.169C262.564 163.568 263.122 164.025 263.63 164.533L264.082 164.985V164.985C264.753 165.657 264.753 166.746 264.082 167.417V167.417L263.827 167.672C263.19 168.309 262.455 168.839 261.649 169.242L260.866 169.633C260.579 169.777 260.317 169.965 260.091 170.192V170.192C259.531 170.752 259.217 171.511 259.217 172.302V173.499V177.147V177.147C259.217 177.819 259.761 178.364 260.433 178.364H260.937C261.393 178.364 261.831 178.545 262.153 178.867L263.222 179.936C263.772 180.487 264.519 180.796 265.298 180.796V180.796C266.077 180.796 266.824 181.105 267.374 181.656L267.388 181.67C267.615 181.897 267.877 182.085 268.164 182.229L269.422 182.858C269.915 183.105 270.426 183.316 270.949 183.49L271.007 183.51C272.852 184.125 274.814 184.302 276.738 184.027L282.188 183.248C282.279 183.235 282.369 183.214 282.457 183.185L283.556 182.818C284.449 182.521 285.255 183.45 284.834 184.291V184.291C284.784 184.393 284.717 184.486 284.637 184.566L283.542 185.661V185.661C281.937 187.266 280.022 188.528 277.915 189.371L277.075 189.707C275.714 190.251 274.413 190.936 273.194 191.749L271.379 192.958L266.514 195.391L265.17 196.063C264.454 196.421 263.665 196.607 262.866 196.607V196.607V196.607C262.194 196.607 261.649 197.152 261.649 197.823V208.482C261.649 210.149 262.591 211.673 264.082 212.418V212.418L265.91 213.332C266.312 213.533 266.729 213.706 267.155 213.848L269.456 214.615C269.915 214.768 270.411 214.768 270.87 214.615L272.923 213.93C273.36 213.785 273.812 214.11 273.812 214.571V214.571C273.812 214.75 273.741 214.922 273.614 215.048L273.204 215.459C272.814 215.848 272.286 216.067 271.735 216.067H271.19C270.52 216.067 269.866 216.265 269.308 216.637L268.339 217.283C267.149 218.076 265.751 218.499 264.322 218.499H264.082V218.499C263.779 218.499 263.682 218.908 263.953 219.043L265.17 219.651C265.254 219.693 265.347 219.715 265.442 219.715H268.24C269.514 219.715 270.779 219.51 271.987 219.107V219.107C273.196 218.705 274.461 218.499 275.735 218.499H276.244H277.208C277.37 218.499 277.524 218.563 277.638 218.677L277.893 218.932C278.182 219.221 277.978 219.715 277.569 219.715V219.715C277.497 219.715 277.427 219.732 277.363 219.764L276.019 220.436C275.362 220.764 274.763 221.196 274.244 221.715L273.812 222.148L271.379 224.58L270.163 225.797V225.797C269.418 226.542 269.157 227.645 269.491 228.645L269.729 229.359C270.01 230.203 270.565 230.93 271.305 231.423L272.101 231.954C273.217 232.697 274.527 233.094 275.867 233.094H287.19H293.271H304.217V233.094C304.666 233.094 304.891 233.637 304.574 233.954L304.294 234.234C304.243 234.284 304.185 234.327 304.121 234.359L302.526 235.156C302.033 235.403 301.522 235.614 300.999 235.788L298.136 236.743V236.743C295.715 237.55 293.411 238.676 291.287 240.092L290.839 240.391L290.582 240.52C289.686 240.968 289.686 242.247 290.582 242.695V242.695C290.751 242.78 290.937 242.824 291.126 242.824H294.488V242.824C294.936 242.824 295.161 243.367 294.844 243.684L294.564 243.963C294.513 244.014 294.455 244.056 294.391 244.089L293.497 244.536C292.549 245.01 291.503 245.256 290.443 245.256H289.623C288.023 245.256 286.445 245.629 285.015 246.344L284.758 246.473C283.158 247.272 281.394 247.689 279.606 247.689H278.677C276.277 247.689 273.911 247.13 271.764 246.057L270.22 245.285C270.182 245.266 270.143 245.25 270.103 245.236L268.086 244.564C267.694 244.433 267.394 244.92 267.686 245.211V245.211C267.715 245.241 267.74 245.275 267.759 245.313L268.073 245.941C268.632 247.06 269.614 247.911 270.8 248.307L272.595 248.905L279.893 251.337L285.927 252.544C285.958 252.551 285.99 252.554 286.022 252.554V252.554C286.453 252.554 286.669 253.075 286.364 253.38L286.099 253.645C286.017 253.727 285.915 253.785 285.802 253.813L282.606 254.612C281.612 254.861 280.591 254.986 279.566 254.986H278.413C276.971 254.986 275.532 255.129 274.118 255.412L270.393 256.156C270.24 256.187 270.084 256.202 269.928 256.202H269.014C268.971 256.202 268.929 256.185 268.899 256.155V256.155C268.759 256.015 268.941 255.793 269.105 255.903L271.344 257.395C271.367 257.411 271.389 257.429 271.409 257.449L272.486 258.525C273.335 259.374 274.486 259.851 275.687 259.851V259.851C276.057 259.851 276.426 259.897 276.785 259.986L281.109 261.067L284.807 261.684C287.203 262.083 289.627 262.284 292.055 262.284V262.284V262.284C292.408 262.284 292.47 262.788 292.128 262.874L289.623 263.5V263.5C287.206 264.305 284.675 264.716 282.128 264.716H281.109H275.028V264.716C274.882 264.716 274.862 264.926 275.004 264.955L279.716 265.897C279.831 265.92 279.937 265.977 280.02 266.06L280.809 266.849C281.009 267.048 281.227 267.227 281.462 267.384L282.008 267.748C283.801 268.943 285.908 269.581 288.062 269.581H288.406H293.511C294.941 269.581 296.339 269.158 297.528 268.365V268.365C298.718 267.572 300.115 267.149 301.545 267.149H303.001M182.594 532.287H185.027M185.027 532.287L189.348 534.448C189.681 534.614 189.892 534.955 189.892 535.328V535.328C189.892 535.701 189.681 536.041 189.348 536.208L187.826 536.969C187.582 537.091 187.326 537.186 187.061 537.252L182.594 538.368L178.191 539.102C176.265 539.423 174.316 539.585 172.363 539.585H170.507C168.841 539.585 167.182 539.789 165.567 540.193L163.943 540.599C163.406 540.733 162.854 540.801 162.301 540.801H160.846C160.751 540.801 160.658 540.823 160.574 540.865L160.251 541.026C159.758 541.273 159.933 542.017 160.485 542.017V542.017C160.624 542.017 160.757 542.072 160.855 542.17L161.918 543.233C162.697 544.012 163.753 544.45 164.854 544.45H169.216H177.729H185.916C186.941 544.45 187.962 544.575 188.956 544.824L191.655 545.499C192.093 545.608 192.493 545.834 192.811 546.153L193.043 546.385C193.362 546.703 193.54 547.135 193.54 547.585V547.585C193.54 547.92 193.441 548.247 193.255 548.526L191.145 551.691C191.12 551.728 191.092 551.763 191.06 551.795V551.795C190.629 552.226 190.934 552.963 191.544 552.963H192.228C192.292 552.963 192.356 552.957 192.418 552.944L194.536 552.521C197.096 552.009 199.55 551.06 201.789 549.717L204.486 548.098L204.846 547.829C207.842 545.582 210.605 543.039 213.093 540.24L216.47 536.441C218.201 534.494 220.218 532.822 222.451 531.481L224.677 530.146C224.999 529.953 225.297 529.72 225.562 529.455L227.951 527.066C228.426 526.591 229.196 526.591 229.671 527.066V527.066C229.899 527.294 230.027 527.604 230.027 527.926V528.03C230.027 528.42 229.873 528.793 229.597 529.069L227.595 531.071L225.414 533.252C225.253 533.413 225.162 533.632 225.162 533.86V533.86C225.162 534.335 225.547 534.72 226.022 534.72H228.764C229.582 534.72 230.375 534.441 231.014 533.931L234.098 531.463C235.422 530.404 236.964 529.653 238.614 529.263V529.263C240.352 528.852 241.97 528.041 243.338 526.892L246.913 523.892C247.007 523.813 247.11 523.746 247.22 523.691V523.691C248.261 523.17 249.487 523.928 249.487 525.092V555.396V624.721V714.722M303.001 267.149H304.217M303.001 267.149V267.149C302.218 268.715 300.887 269.94 299.26 270.591L295.704 272.013L294.14 272.639C291.156 273.833 287.972 274.446 284.758 274.446V274.446V274.446C283.561 274.446 282.716 275.618 283.094 276.754L283.262 277.256C283.441 277.793 283.826 278.237 284.332 278.49L285.618 279.133C285.855 279.251 286.1 279.353 286.352 279.437L287.085 279.681C288.766 280.241 290.526 280.527 292.297 280.527H292.844C293.938 280.527 295.03 280.437 296.108 280.257L298.186 279.911C300.581 279.511 303.005 279.311 305.434 279.311V279.311V279.311C305.883 279.311 306.107 279.853 305.79 280.171L305.51 280.45C305.46 280.501 305.401 280.543 305.337 280.576L303.001 281.743L301.213 282.637C299.175 283.656 297.315 284.997 295.704 286.608V286.608L295.348 286.964C294.873 287.439 294.873 288.21 295.348 288.684V288.684C295.576 288.913 295.885 289.041 296.208 289.041H298.517C299.072 289.041 299.625 289.109 300.164 289.243L304.217 290.257L309.082 291.473L314.976 292.652C315.098 292.676 315.211 292.737 315.299 292.825L315.596 293.122C315.885 293.411 315.681 293.906 315.272 293.906V293.906C315.201 293.906 315.13 293.922 315.067 293.954L314.172 294.401C313.238 294.868 312.175 295.011 311.151 294.806L307.8 294.136C307.035 293.983 306.257 293.906 305.477 293.906H301.429C300.878 293.906 300.35 294.124 299.961 294.514V294.514C299.571 294.903 299.353 295.431 299.353 295.982V296.183C299.353 297.04 299.781 297.84 300.493 298.315L302.498 299.651C302.812 299.861 303.001 300.214 303.001 300.591V300.591C303.001 301.431 302.117 301.977 301.366 301.602L300.776 301.306C300.638 301.238 300.492 301.19 300.341 301.165L296.517 300.528C294.361 300.168 292.256 299.552 290.247 298.691L284.758 296.338L281.222 294.924C279.531 294.247 277.766 293.775 275.963 293.518L272.779 293.063C271.063 292.818 269.436 292.144 268.049 291.104L265.675 289.323C265.43 289.14 265.133 289.041 264.827 289.041V289.041C263.862 289.041 263.181 289.986 263.486 290.901L263.954 292.307C264.039 292.56 264.082 292.825 264.082 293.092V297.554V299.987V299.987C264.082 300.659 264.626 301.203 265.298 301.203H265.802C266.258 301.203 266.695 301.022 267.018 300.699L267.488 300.229C267.648 300.07 267.842 299.95 268.055 299.878L269.055 299.545C269.913 299.259 270.688 300.153 270.283 300.962V300.962C270.205 301.12 270.086 301.255 269.939 301.353L267.066 303.267C266.699 303.512 266.357 303.793 266.045 304.105L265.802 304.348C264.701 305.449 264.082 306.943 264.082 308.5V308.5V319.249C264.082 321.546 265.552 323.585 267.73 324.311V324.311V324.311C270.962 325.119 274.28 325.528 277.61 325.528H290.839H303.001H311.119C311.714 325.528 312.012 326.247 311.591 326.667V326.667C311.541 326.718 311.482 326.76 311.418 326.792L309.823 327.59C309.33 327.836 308.82 328.048 308.297 328.222L306.031 328.977C305.633 329.11 305.246 329.27 304.871 329.458L304.581 329.603C303.542 330.122 302.397 330.393 301.235 330.393H300.608C299.025 330.393 297.508 331.021 296.389 332.14L295.905 332.624C295.772 332.757 295.618 332.868 295.449 332.952V332.952C294.378 333.488 294.146 334.916 294.993 335.763L295.704 336.474L296.283 337.052C297.469 338.239 299.079 338.906 300.758 338.906V338.906C301.438 338.906 302.114 339.016 302.759 339.231L303.609 339.514C304.818 339.917 306.083 340.122 307.357 340.122H311.515H311.692C312.728 340.122 313.402 341.213 312.939 342.139V342.139C312.804 342.409 312.585 342.628 312.316 342.763L310.726 343.557C310.441 343.7 310.147 343.822 309.845 343.922L307.012 344.867C306.772 344.947 306.521 344.987 306.268 344.987H305.963C304.506 344.987 303.477 346.415 303.938 347.797V347.797C304.117 348.334 304.502 348.778 305.008 349.032L305.767 349.411C306.348 349.701 306.988 349.852 307.637 349.852H307.866H303.001H298.176C296.539 349.852 294.912 349.588 293.358 349.071V349.071C292.491 348.782 291.6 348.571 290.695 348.442L283.542 347.42L282.754 347.223C280.371 346.627 277.895 347.766 276.797 349.962L276.639 350.279C276.379 350.798 276.244 351.371 276.244 351.952V352.641C276.244 353.192 276.463 353.72 276.852 354.109V354.109C277.242 354.499 277.77 354.717 278.32 354.717H281.109H289.623H297.478C297.842 354.717 298.136 355.012 298.136 355.376V355.376C298.136 355.698 297.904 355.972 297.586 356.025L293.06 356.78C291.665 357.012 290.465 357.898 289.832 359.164L289.176 360.476C288.716 361.395 288.896 362.505 289.623 363.231V363.231C290.349 363.957 291.459 364.137 292.377 363.678L298.136 360.798L306.65 355.934L315.44 352.417C317.632 351.541 320.045 351.377 322.336 351.949L323.505 352.242C323.62 352.27 323.737 352.285 323.854 352.285V352.285C325.135 352.285 325.777 353.834 324.871 354.74L324.053 355.558C323.807 355.804 323.499 355.978 323.162 356.062L320.193 356.805C319.275 357.034 318.385 357.363 317.539 357.786L311.515 360.798L308.695 362.679C308.144 363.046 307.63 363.467 307.162 363.935L304.721 366.376C304.399 366.698 304.217 367.136 304.217 367.592V367.592C304.217 368.542 304.988 369.312 305.937 369.312H307.466C307.732 369.312 307.996 369.279 308.254 369.215L313.865 367.812C316.302 367.203 318.862 367.302 321.245 368.096V368.096V368.096C322.308 368.45 322.249 369.973 321.162 370.245L320.197 370.486C320.085 370.514 319.97 370.528 319.855 370.528H319.195C318.143 370.528 317.106 370.773 316.166 371.243L312.731 372.961L305.434 376.609L300.668 378.516C299.96 378.799 299.645 379.627 299.986 380.309V380.309C300.308 380.953 300.047 381.735 299.403 382.057L298.947 382.285C298.437 382.54 297.836 382.54 297.325 382.285L296.218 381.731C295.877 381.561 295.514 381.437 295.14 381.362L293.367 381.007C290.899 380.513 288.564 379.502 286.515 378.038L283.36 375.785C281.862 374.715 280.455 373.523 279.153 372.221L277.787 370.855C276.762 369.83 275.616 368.935 274.373 368.189L271.454 366.438C270.609 365.931 269.643 365.663 268.657 365.663H266.701C265.841 365.663 265.055 366.149 264.671 366.918V366.918C264.307 367.646 264.361 368.514 264.812 369.192L266.33 371.468C266.453 371.652 266.593 371.823 266.749 371.979V371.979C267.377 372.608 268.23 372.961 269.119 372.961H269.478C269.932 372.961 270.382 373.034 270.813 373.177L273.812 374.177L277.223 375.314C277.379 375.366 277.521 375.454 277.637 375.57V375.57C278.149 376.081 278.009 376.943 277.362 377.267L276.803 377.546C276.445 377.725 276.031 377.755 275.651 377.628L273.623 376.952C272.942 376.725 272.23 376.609 271.513 376.609H270.163H267.928C266.357 376.609 264.963 377.614 264.466 379.104V379.104C264.217 379.853 264.217 380.663 264.466 381.412L264.794 382.394C265.125 383.389 265.684 384.293 266.426 385.034L266.74 385.348C267.396 386.005 268.154 386.551 268.984 386.966L270.048 387.498C271.733 388.341 273.554 388.878 275.426 389.086L283.542 389.988L296.92 391.204L306.543 392.407C306.614 392.416 306.684 392.432 306.752 392.455V392.455C307.785 392.799 307.729 394.279 306.672 394.543L305.602 394.811C305.49 394.839 305.375 394.853 305.26 394.853H302.81C300.52 394.853 298.245 395.222 296.072 395.946L292.768 397.048C292.294 397.206 291.839 397.415 291.411 397.672L287.373 400.095C286.583 400.568 286.292 401.57 286.703 402.393V402.393C287.002 402.99 287.612 403.367 288.279 403.367H295.536C297.254 403.367 298.956 403.694 300.551 404.332L303.159 405.376C303.857 405.655 304.492 406.073 305.023 406.605V406.605C306.065 407.646 307.477 408.232 308.95 408.232H310.299H319.354C323.038 408.232 326.713 408.595 330.326 409.318L330.975 409.448L338.252 410.661C338.265 410.663 338.279 410.664 338.292 410.664V410.664C338.58 410.664 338.622 411.081 338.339 411.137L334.682 411.868C334.643 411.876 334.603 411.88 334.563 411.88H324.152C323.837 411.88 323.525 411.931 323.227 412.03L322.609 412.236C321.247 412.69 320.603 414.245 321.245 415.529V415.529V415.529C321.74 416.519 320.88 417.645 319.794 417.428L316.38 416.745V416.745C313.149 415.937 309.831 415.529 306.5 415.529H303.001H298.888C297.801 415.529 296.92 416.41 296.92 417.497V417.497C296.92 417.802 296.991 418.104 297.128 418.377L297.256 418.634C297.796 419.712 298.898 420.394 300.104 420.394H301.281C301.616 420.394 301.951 420.427 302.279 420.493L304.94 421.025C306.887 421.414 308.793 421.981 310.636 422.718L313.947 424.043V424.043C314.553 424.346 314.338 425.259 313.66 425.259H312.731H306.65H298.136H296.653C295.658 425.259 295.011 426.306 295.456 427.195V427.195C295.615 427.513 295.893 427.754 296.23 427.867L297.15 428.173C297.963 428.444 298.042 429.563 297.276 429.946V429.946C297.048 430.06 296.784 430.078 296.542 429.998L294.37 429.274C293.643 429.031 292.965 428.663 292.367 428.184L289.164 425.621C287.852 424.572 286.433 423.664 284.93 422.912V422.912C281.617 421.256 277.965 420.394 274.261 420.394H271.379H268.437C266.563 420.394 264.898 421.593 264.305 423.372V423.372C264.157 423.816 264.082 424.281 264.082 424.749V433.772V433.772C264.082 435.263 264.924 436.626 266.257 437.293L266.514 437.421L272.595 441.07L275.38 442.462C278.348 443.946 281.62 444.719 284.938 444.719H287.171C287.989 444.719 288.802 444.85 289.578 445.109L290.43 445.393C291.483 445.744 292.39 446.436 293.005 447.36L293.452 448.03C294.099 449.001 295.188 449.583 296.354 449.583V449.583C296.729 449.583 297.101 449.523 297.457 449.404L299.533 448.712C300.196 448.491 300.744 448.016 301.057 447.391V447.391C301.503 446.499 302.415 445.935 303.413 445.935H305.434H310.586C311.099 445.935 311.515 445.519 311.515 445.006V445.006C311.515 444.315 312.242 443.866 312.86 444.175L313.638 444.564C313.841 444.665 314.066 444.719 314.294 444.719H321.245V444.719C321.694 444.719 321.918 445.261 321.601 445.579L320.385 446.795C320.157 447.023 319.847 447.151 319.525 447.151H317.883C316.216 447.151 314.693 448.093 313.947 449.583V449.583L312.201 452.203C311.802 452.801 311.881 453.598 312.389 454.107V454.107C312.612 454.329 312.898 454.476 313.208 454.528L317.652 455.268C319.219 455.53 320.824 455.466 322.366 455.08L323.598 454.772C324.451 454.559 325.341 454.538 326.202 454.71L329.9 455.45C330.525 455.575 330.975 456.123 330.975 456.76V456.76C330.975 457.499 330.376 458.097 329.638 458.097H328.542H323.677H310.299L299.964 456.949C299.561 456.904 299.153 456.947 298.769 457.075L297.644 457.45C296.62 457.792 296.136 458.961 296.618 459.926V459.926C296.813 460.315 297.143 460.619 297.546 460.78L301.163 462.227C302.377 462.712 303.673 462.962 304.981 462.962H305.943C306.411 462.962 306.876 463.037 307.32 463.186L309.056 463.764C309.798 464.011 310.299 464.706 310.299 465.488V465.488C310.299 466.176 310.687 466.805 311.303 467.113L312.059 467.491C312.501 467.712 312.988 467.827 313.483 467.827H316.913C317.367 467.827 317.819 467.883 318.259 467.993L321.944 468.914C322.248 468.99 322.461 469.263 322.461 469.576V469.576C322.461 469.954 322.155 470.259 321.778 470.259H318.812H311.894C311.642 470.259 311.391 470.229 311.147 470.168V470.168M306.65 469.043L311.147 470.168M311.147 470.168L313.707 473.587C313.866 473.8 313.99 474.037 314.074 474.289V474.289C314.61 475.897 313.414 477.557 311.719 477.557H311.515V477.557C309.904 477.557 308.303 477.297 306.775 476.788L305.434 476.341L297.267 472.768C294.607 471.605 291.861 470.65 289.053 469.913L281.585 467.952C281.268 467.869 280.962 467.753 280.669 467.607L276.512 465.528C275.271 464.908 273.812 465.81 273.812 467.197V467.197C273.812 467.606 273.946 468.003 274.193 468.328L275.355 469.853C275.942 470.624 276.673 471.275 277.506 471.769L279.378 472.881C280.529 473.564 281.749 474.121 283.019 474.545L292.055 477.557L298.136 479.989L298.81 480.326C299.854 480.848 299.483 482.422 298.316 482.422V482.422C298.197 482.422 298.079 482.441 297.966 482.478L295.791 483.204C294.924 483.493 294.032 483.703 293.128 483.832L289.688 484.324C287.227 484.675 284.726 484.646 282.273 484.237L281.705 484.143C279.697 483.808 277.751 483.175 275.931 482.265V482.265C274.523 481.561 273.201 480.696 271.991 479.689L266.654 475.241C266.561 475.163 266.46 475.097 266.351 475.043V475.043C265.309 474.522 264.082 475.28 264.082 476.446V479.989V486.07V486.312C264.082 487.715 264.639 489.06 265.631 490.052V490.052C266.212 490.633 266.92 491.071 267.699 491.33L270.163 492.152V492.152C274.18 493.758 278.467 494.584 282.794 494.584H285.974H299.353H309.082H315.164H323.677H325.321C326.428 494.584 327.326 495.482 327.326 496.589V496.589C327.326 497.545 328.001 498.368 328.938 498.555L332.752 499.318C333.188 499.405 333.631 499.449 334.075 499.449H337.877C338.13 499.449 338.373 499.348 338.552 499.169L338.6 499.12C339.037 498.684 339.773 498.803 340.05 499.356V499.356C340.351 499.957 339.913 500.665 339.24 500.665H338.412C338.319 500.665 338.226 500.674 338.134 500.693L332.286 501.862C332.223 501.875 332.158 501.881 332.094 501.881V501.881C331.03 501.881 330.73 503.34 331.708 503.76L334.331 504.884C335.15 505.234 335.504 506.202 335.106 506.998V506.998C334.816 507.577 334.195 507.915 333.551 507.843L325.121 506.907C324.161 506.8 323.215 506.592 322.299 506.287L320.029 505.53L315.164 504.314L304.217 501.881L298.351 500.708C298.208 500.68 298.063 500.665 297.917 500.665H296.496C296.059 500.665 295.704 501.02 295.704 501.457V501.457C295.704 501.722 295.836 501.97 296.057 502.117L299.353 504.314L303.001 506.746L309.175 509.833C311.543 511.017 313.992 512.031 316.503 512.869L320.029 514.044L322.711 514.938C323.351 515.151 324.021 515.26 324.696 515.26H329.758C330.43 515.26 330.975 514.715 330.975 514.044V514.044C330.975 513.372 331.519 512.828 332.191 512.828H337.862C338.932 512.828 339.986 512.579 340.943 512.1L342.809 511.167C343.835 510.654 344.915 510.255 346.028 509.976L349.218 509.179L353.739 508.049C353.967 507.992 354.202 507.963 354.438 507.963H355.201C355.986 507.963 356.683 508.465 356.931 509.21L356.963 509.304C357.341 510.439 356.496 511.611 355.299 511.611V511.611H354.599C351.932 511.611 349.375 512.671 347.49 514.556L347.141 514.904C346.905 515.141 346.645 515.354 346.367 515.539L344.523 516.769C343.705 517.314 343.353 518.34 343.664 519.273V519.273C344.044 520.415 343.427 521.65 342.285 522.031L341.214 522.388C340.876 522.5 340.523 522.557 340.167 522.557H335.84H334.585C333.863 522.557 333.203 522.965 332.88 523.611V523.611C332.478 524.415 332.692 525.391 333.394 525.953L338.272 529.855L340.565 532.148C341.232 532.815 341.049 533.939 340.206 534.361V534.361C339.762 534.583 339.234 534.55 338.821 534.275L335.84 532.287L330.975 529.855V529.855C327.775 528.255 324.247 527.422 320.671 527.422H319.016C317.263 527.422 315.514 527.249 313.795 526.905V526.905C311.474 526.441 309.226 525.67 307.11 524.612L298.136 520.125L294.717 518.073C292.948 517.012 291.068 516.147 289.111 515.495L285.407 514.26C284.977 514.117 284.527 514.044 284.073 514.044H283.333C282.688 514.044 282.069 514.3 281.613 514.756L280.939 515.43C280.361 516.008 280.361 516.945 280.939 517.523V517.523C281.052 517.635 281.145 517.765 281.216 517.907L281.362 518.198C281.952 519.379 283.159 520.125 284.479 520.125H286.518C286.965 520.125 287.411 520.169 287.849 520.257L289.775 520.642C292.096 521.106 294.344 521.877 296.46 522.936L298.136 523.774L303.001 526.206V526.206C303.607 526.509 303.392 527.422 302.714 527.422H301.978C301.851 527.422 301.726 527.393 301.613 527.336L297.648 525.354C297.164 525.112 296.655 524.924 296.13 524.792L293.019 524.015C292.421 523.865 291.789 524.04 291.353 524.476V524.476C291.024 524.805 290.839 525.251 290.839 525.717V525.966C290.839 526.859 291.343 527.674 292.142 528.074L292.905 528.455C293.148 528.577 293.405 528.672 293.669 528.738L298.136 529.855L300.153 530.527C301.226 530.885 302.201 531.487 303.001 532.287V532.287V532.287C303.45 532.736 303.132 533.503 302.497 533.503H300.569V533.503C299.763 533.503 298.963 533.374 298.199 533.119L297.528 532.895C296.32 532.493 295.055 532.287 293.781 532.287H289.193C286.263 532.287 283.36 531.728 280.64 530.64V530.64C279.334 530.118 277.983 529.716 276.603 529.44L275.271 529.174C273.5 528.82 271.804 528.164 270.256 527.235L266.967 525.261C266.671 525.084 266.332 524.99 265.987 524.99V524.99C264.935 524.99 264.082 525.843 264.082 526.895V662.424" stroke="#4B4B4B" stroke-width="4.33613"/>
<path d="M174.595 390.252C163.956 390.252 157.955 378.032 164.46 369.613L165.296 368.531C166.382 367.126 167.734 365.95 169.275 365.069L194.101 350.883C196.206 349.68 198.539 348.932 200.951 348.687L259.994 342.683C260.831 342.597 261.673 342.573 262.513 342.61L329.313 345.557C332.986 345.719 336.513 347.045 339.384 349.341L375.352 378.116C377.312 379.684 378.908 381.658 380.031 383.903L394.587 413.017L405.479 434.801C408.146 440.134 407.886 446.462 404.792 451.559L392.747 471.398C391.811 472.938 390.642 474.324 389.28 475.504L379.964 483.578C376.811 486.311 372.778 487.815 368.605 487.815H358.516C355.173 487.815 351.901 488.781 349.094 490.598L334.965 499.74L321.844 507.612C319.774 508.854 317.468 509.651 315.072 509.95L282.212 514.058C277.802 514.609 273.349 513.446 269.772 510.81L254.747 499.74L211.763 471.37C205.16 467.012 202.343 458.738 204.915 451.256L209.59 437.654C211.399 432.393 210.574 426.583 207.372 422.034L193.454 402.255C192.406 400.766 191.132 399.452 189.676 398.361L182.28 392.814C180.063 391.151 177.367 390.252 174.595 390.252V390.252Z" fill="#F9EBB3"/>
<path d="M145.261 390.252L160.729 370.689C162.698 368.199 164.9 365.903 167.306 363.831L171.195 360.482C179.007 353.755 188.712 349.615 198.974 348.631L262.336 342.555L291.605 343.639H318.706H333.883H339.303V343.639C338.414 343.639 338.027 344.762 338.727 345.309L372.028 371.371C373.329 372.389 374.459 373.608 375.375 374.983L382.664 385.916L389.168 395.672M183.202 382.664L113.442 415.492C110.811 416.73 108.293 418.196 105.917 419.873L95.9223 426.928C92.7077 429.198 89.9395 432.041 87.7569 435.315L86.7321 436.852C83.8987 441.102 82.3867 446.096 82.3867 451.204V451.204C82.3867 454.62 83.0631 458.002 84.377 461.155L84.9547 462.541C86.8331 467.05 89.6802 471.09 93.2941 474.375L95.8812 476.727C98.4056 479.022 101.477 480.63 104.801 481.397L108.542 482.26C111.891 483.033 115.41 482.289 118.16 480.227V480.227M117.076 471.555L113.392 467.345C111.264 464.913 111.594 461.197 114.118 459.178V459.178C114.64 458.76 115.233 458.438 115.868 458.226L126.751 454.599C129.689 453.619 132.713 452.915 135.782 452.497L155.017 449.874L186.454 443.37L218.864 436.888C218.938 436.873 219.013 436.866 219.088 436.866V436.866C220.44 436.866 220.669 438.801 219.354 439.116L201.63 443.37L174.53 447.706L141.119 455.25C140.99 455.279 140.858 455.294 140.725 455.294V455.294C139.019 455.294 138.279 457.452 139.625 458.499L144.301 462.136C144.925 462.622 145.685 462.902 146.475 462.938L169.109 463.966H181.943C185.661 463.966 189.368 464.382 192.994 465.206L205.519 468.053C209.417 468.939 213.194 470.29 216.769 472.078L218.356 472.871C222.364 474.875 226.083 477.41 229.414 480.408L235.235 485.647L245.507 496.853C246.602 498.047 247.876 499.065 249.283 499.869L250.867 500.774C253.358 502.197 256.302 502.603 259.084 501.908V501.908M215.723 457.462V457.462C219.92 457.462 223.979 458.964 227.165 461.695L229.815 463.966L236.319 470.471L244.992 479.143L252.58 488.899L256.545 494.846C258.234 497.38 259.688 500.064 260.888 502.864L262.336 506.244L264.816 511.204C265.328 512.227 266.001 513.16 266.809 513.969L267.308 514.468C268.983 516.143 271.255 517.084 273.624 517.084V517.084C274.761 517.084 275.887 516.867 276.942 516.445L280.765 514.916L285.101 512.748M248.244 460.714L256.755 467.678C259.026 469.536 261.129 471.591 263.039 473.819L266.672 478.059L269.896 481.819C272.077 484.365 273.997 487.124 275.625 490.054L278.597 495.403L281.849 502.992L285.101 510.58M161.521 369.656L162.396 368.562C164.696 365.686 167.308 363.075 170.184 360.774L171.277 359.899M170.193 375.076L170.94 374.329C172.608 372.661 174.393 371.113 176.281 369.697L177.782 368.571M191.874 356.647L192.213 356.478C194.87 355.149 197.664 354.116 200.546 353.395V353.395M204.883 363.151L210.303 360.983L216.807 358.815M231.983 350.143L238.488 347.975M262.336 346.891L268.84 347.975M290.521 347.975H297.758C302.299 347.975 306.81 348.707 311.118 350.143V350.143M271.009 357.731L283.401 358.46C287.402 358.695 291.346 359.531 295.099 360.938V360.938C297.103 361.69 299.043 362.601 300.901 363.662L305.698 366.403L306.602 366.791C310.918 368.641 314.438 371.96 316.538 376.16V376.16M306.782 362.067V362.067C309.621 359.938 312.978 358.609 316.505 358.217L318.153 358.033C319.962 357.832 321.787 357.822 323.598 358.004L328.103 358.454C330.507 358.694 332.891 359.109 335.235 359.695L338.346 360.473C342.579 361.531 346.655 363.141 350.469 365.259L354.479 367.487L363.151 372.908L368.572 376.16M316.538 370.74L321.539 370.239C325.403 369.853 329.304 370.137 333.072 371.079V371.079C335.053 371.574 336.986 372.249 338.846 373.094L342.314 374.671C346.073 376.379 349.606 378.549 352.83 381.128L358.815 385.916L371.824 394.588L380.496 401.093M380.496 401.093V401.093C383.333 400.383 385.925 398.916 387.993 396.848L390.252 394.588M380.496 401.093L388.629 402.522C388.988 402.585 389.351 402.617 389.716 402.617V402.617C392.046 402.617 394.184 403.907 395.27 405.969L397.138 409.516C397.587 410.367 397.668 411.365 397.364 412.278V412.278C396.985 413.415 397.208 414.666 397.957 415.601L401.093 419.521L409.765 430.361M336.051 386.449L337.763 387.308C341.663 389.262 345.29 391.72 348.551 394.619L353.395 398.924L356.345 401.875C360.135 405.665 364.511 408.819 369.305 411.216L372.36 412.743C375.599 414.363 379.082 415.519 382.645 416.167V416.167C386.938 416.948 391.369 416.986 395.672 416.269V416.269M339.303 403.261L353.395 414.101L367.488 422.773L369.644 424.211C372.521 426.129 375.707 427.538 379.061 428.377V428.377C381.454 428.975 383.911 429.277 386.378 429.277H393.504H403.261M201.63 408.681L204.537 412.072C206.896 414.824 208.508 418.135 209.219 421.689V421.689M165.857 408.681L175.614 410.849M259.084 443.37L273.177 446.622L276.892 448.015C280.186 449.25 283.327 450.859 286.254 452.81L288.06 454.015C292.536 456.998 296.293 460.939 299.06 465.552V465.552C300.589 468.099 302.424 470.449 304.524 472.549L308.95 476.975L312.202 480.227M336.051 492.151V492.151C331.783 492.151 327.583 491.08 323.836 489.037L321.926 487.995C319.071 486.438 316.455 484.48 314.156 482.181L312.202 480.227M317.622 458.546L329.546 470.471L336.051 476.975M286.185 473.723L292.029 480.401C293.181 481.718 294.578 482.797 296.143 483.58L297.142 484.079C299.174 485.095 301.487 485.405 303.715 484.96V484.96C305.024 484.698 306.269 484.182 307.38 483.442L308.95 482.395L312.202 480.227M214.639 393.504L218.704 393.874C223.899 394.346 229.136 393.853 234.151 392.42V392.42L240.91 390.731C242.16 390.418 243.473 390.469 244.695 390.876V390.876C247.462 391.798 249.328 394.387 249.328 397.303V397.976C249.328 398.606 249.251 399.234 249.098 399.845L248.994 400.259C248.503 402.223 247.488 404.017 246.056 405.449L245.51 405.995C244.449 407.056 243.224 407.939 241.881 408.61L241.742 408.679C238.923 410.089 235.728 410.57 232.618 410.051L230.899 409.765V409.765C228.062 409.055 225.471 407.588 223.403 405.52L222.03 404.147C221.439 403.557 220.808 403.009 220.14 402.508L219.105 401.732C217.594 400.599 216.367 399.129 215.522 397.439L214.725 395.845C214.668 395.731 214.593 395.626 214.502 395.536L214.004 395.037C213.438 394.472 213.839 393.504 214.639 393.504V393.504Z" stroke="#4B4B4B" stroke-width="4.33613" stroke-linecap="round"/>
<path d="M275.344 369.655L288.352 375.075L296.91 378.498C298.406 379.097 299.722 380.073 300.728 381.332V381.332C302.498 383.544 305.178 384.832 308.011 384.832H319.789M288.352 394.588L303.529 401.092M314.369 408.68L319.526 414.483C321.863 417.111 324.471 419.486 327.308 421.565L339.302 430.361M355.562 434.697L359.274 437.481C362.555 439.942 366.245 441.805 370.174 442.983V442.983C373.424 443.958 376.799 444.454 380.192 444.454H390.251H398.42C403.779 444.454 409.104 443.59 414.189 441.895L416.268 441.201M345.806 449.874L348.346 451.567C353.052 454.704 358.58 456.378 364.235 456.378V456.378H370.578C373.57 456.378 376.555 456.647 379.499 457.182L382.575 457.742C385.519 458.277 388.504 458.546 391.496 458.546H391.701C395.778 458.546 399.84 458.046 403.795 457.057L406.512 456.378L416.268 453.126M339.302 461.798L347.855 467.241C350.099 468.669 352.225 470.274 354.212 472.041L357.423 474.895C359.783 476.992 362.444 478.723 365.318 480.029L366.197 480.429C370.595 482.428 375.436 483.249 380.246 482.812L382.085 482.644C383.903 482.479 385.682 482.016 387.351 481.275V481.275C391.93 479.24 395.353 475.253 396.671 470.418L397.124 468.758C397.599 467.017 397.84 465.22 397.84 463.414V461.798M345.806 491.067H360.982H364.44C369.911 491.067 375.208 489.149 379.411 485.647V485.647M303.529 494.319L319.189 501.627C319.589 501.814 319.973 502.03 320.34 502.275L322.904 503.984C324.875 505.298 327.499 505.038 329.174 503.363V503.363C330.106 502.431 330.629 501.167 330.629 499.849V494.319M293.772 415.185L305.677 422.188C310.002 424.731 313.917 427.913 317.292 431.625L323.041 437.949L330.629 444.454M275.344 430.361L284.016 434.697M299.192 441.201L306.781 444.454" stroke="#4B4B4B" stroke-width="4.33613"/>
<path d="M110.648 418.201C111.316 417.639 112.065 417.181 112.869 416.842L152.849 400.008L169.541 391.662C172.579 390.143 176.225 390.538 178.868 392.672L201.059 410.596C202.146 411.474 203.005 412.602 203.563 413.884L209.158 426.753C211.397 431.904 208.224 437.792 202.691 438.755L163.689 445.538L118.544 454.772C116.879 455.112 115.351 455.935 114.15 457.136L113.436 457.85C111.031 460.254 110.254 463.843 111.448 467.027L112.462 469.729C112.646 470.221 112.894 470.687 113.2 471.115L114.243 472.575C116.152 475.249 114.839 479.007 111.68 479.91V479.91C110.951 480.118 110.184 480.149 109.441 480.001L105.151 479.143L100.881 477.719C99.4181 477.232 98.1119 476.363 97.0966 475.203L91.6309 468.956C91.2505 468.521 90.9144 468.05 90.6278 467.548L87.6902 462.407C87.0532 461.292 86.6716 460.05 86.5731 458.77L85.8097 448.845C85.6975 447.387 85.9561 445.923 86.5615 444.592L90.2483 436.481C90.7819 435.307 91.5707 434.266 92.5571 433.436L110.648 418.201Z" fill="#DDBC49"/>
<path d="M147.778 459.26C146.344 458.113 146.895 455.816 148.693 455.444L175.613 449.874L198.176 445.576C198.31 445.551 198.446 445.538 198.582 445.538H202.179C203.566 445.538 204.596 446.822 204.295 448.176L202.792 454.943C202.74 455.176 202.727 455.415 202.753 455.652L203.47 462.104C203.632 463.562 202.329 464.757 200.89 464.469L192.957 462.883L176.697 461.799L150.308 460.743C149.845 460.725 149.401 460.559 149.04 460.27L147.778 459.26Z" fill="#B09A4C"/>
<path d="M217.356 396.551C217.117 396.168 217.392 395.672 217.843 395.672V395.672C217.875 395.672 217.906 395.669 217.938 395.664L223.868 394.676C224.219 394.617 224.573 394.588 224.929 394.588H230.263C232.929 394.588 234.575 397.495 233.204 399.781V399.781C233.113 399.932 233.01 400.076 232.897 400.212L230.225 403.419C228.688 405.263 226.138 405.909 223.908 405.017L223.683 404.927C222.737 404.548 221.936 403.878 221.396 403.014L217.356 396.551Z" fill="#211F1F"/>
</svg>
