<svg width="534" height="332" viewBox="0 0 534 332" fill="none" xmlns="http://www.w3.org/2000/svg">
<path d="M110.772 306.423H113.554V310.595H117.666V313.256H113.554V317.428H110.772V313.256H106.661V310.595H110.772V306.423Z" fill="#383634"/>
<path d="M5.63991 235.477V231.158H7.22328C9.04654 231.158 10.7738 230.87 12.4052 230.295C14.0365 229.623 15.38 228.615 16.4356 227.272C17.4911 225.928 18.0189 224.153 18.0189 221.946V142.778C18.0189 141.339 17.4911 140.283 16.4356 139.611C15.38 138.844 14.0365 138.316 12.4052 138.028C10.7738 137.74 9.04654 137.596 7.22328 137.596H5.63991V133.278H35.7238L65.6637 226.984H63.0727L94.7399 133.278H124.824V137.596H123.96C121.945 137.596 120.074 137.74 118.346 138.028C116.619 138.316 115.18 138.844 114.028 139.611C112.973 140.283 112.445 141.339 112.445 142.778V225.976C112.445 227.32 112.973 228.375 114.028 229.143C115.084 229.911 116.475 230.439 118.202 230.726C120.026 231.014 121.945 231.158 123.96 231.158H124.824V235.477H86.6792V231.158H87.9747C89.606 231.158 91.2373 231.11 92.8687 231.014C94.596 230.918 96.0354 230.774 97.1869 230.583C98.4344 230.295 99.0582 230.007 99.0582 229.719V133.566L100.498 133.854L65.9516 235.764H56.8832L22.3372 134.141L24.0645 133.854V226.264C24.0645 227.608 24.4963 228.663 25.3599 229.431C26.3196 230.103 27.615 230.583 29.2464 230.87C30.8777 231.062 32.701 231.158 34.7162 231.158H37.0192V235.477H5.63991ZM185.192 191.862L184.904 196.468C180.01 196.852 175.596 197.428 171.661 198.196C167.823 198.963 164.464 199.971 161.585 201.218C158.802 202.37 156.451 203.761 154.532 205.393C152.613 206.928 151.173 208.751 150.214 210.863C149.35 212.878 148.918 215.181 148.918 217.772C148.918 220.938 149.446 223.577 150.502 225.689C151.557 227.704 153.045 229.239 154.964 230.295C156.979 231.35 159.234 231.878 161.729 231.878C165.184 231.878 168.159 231.206 170.654 229.863C173.244 228.423 175.5 226.456 177.419 223.961C179.338 221.466 181.017 218.683 182.457 215.613L185.336 216.908C183.704 221.034 181.593 224.633 179.002 227.704C176.507 230.679 173.58 232.982 170.222 234.613C166.863 236.148 163.073 236.916 158.85 236.916C154.724 236.916 150.933 236.148 147.479 234.613C144.12 233.078 141.433 230.87 139.418 227.992C137.403 225.113 136.395 221.706 136.395 217.772C136.395 213.837 137.451 210.479 139.562 207.696C141.673 204.817 144.792 202.37 148.918 200.355C153.045 198.34 158.131 196.66 164.176 195.317C170.318 193.973 177.323 192.822 185.192 191.862ZM182.169 235.477V221.226L181.017 221.802V182.938C181.017 178.428 180.442 174.781 179.29 171.998C178.234 169.215 176.555 167.2 174.252 165.953C171.949 164.705 169.07 164.081 165.616 164.081C160.338 164.081 156.067 165.185 152.805 167.392C149.542 169.503 146.855 172.142 144.744 175.309C144.936 173.486 145.224 171.95 145.608 170.703C146.087 169.359 146.663 168.256 147.335 167.392C148.103 166.528 148.918 165.953 149.782 165.665C150.742 165.281 151.701 165.137 152.661 165.233V180.779H141.001V167.68C142.345 166.624 144.216 165.473 146.615 164.225C149.11 162.978 152.037 161.874 155.396 160.915C158.85 159.955 162.641 159.475 166.767 159.475C170.797 159.475 174.444 159.955 177.707 160.915C181.065 161.778 183.944 163.17 186.343 165.089C188.742 166.912 190.565 169.311 191.813 172.286C193.156 175.165 193.828 178.62 193.828 182.65V225.976C193.828 227.32 194.308 228.375 195.268 229.143C196.227 229.911 197.523 230.439 199.154 230.726C200.785 231.014 202.609 231.158 204.624 231.158H204.768V235.477H182.169ZM207.994 165.521V161.347H208.426C211.497 161.347 214.04 161.011 216.055 160.339C218.166 159.571 219.797 158.42 220.949 156.884C222.1 155.253 222.772 153.094 222.964 150.407L227.714 160.915H251.896V165.521H207.994ZM232.32 215.181C232.32 219.307 232.8 222.618 233.76 225.113C234.815 227.512 236.255 229.239 238.078 230.295C239.901 231.35 241.964 231.878 244.267 231.878C246.762 231.878 248.874 231.542 250.601 230.87C252.424 230.199 253.576 229.815 254.055 229.719V234.469C253.192 234.949 252.088 235.381 250.745 235.764C249.497 236.148 248.154 236.436 246.714 236.628C245.275 236.82 243.74 236.916 242.108 236.916C237.886 236.916 234.048 236.196 230.593 234.757C227.138 233.317 224.403 231.014 222.388 227.848C220.469 224.585 219.509 220.315 219.509 215.037V160.339L222.1 159.907L223.684 142.346H232.32V215.181ZM258.458 165.521V161.347H258.89C261.961 161.347 264.504 161.011 266.519 160.339C268.63 159.571 270.261 158.42 271.413 156.884C272.564 155.253 273.236 153.094 273.428 150.407L278.178 160.915H302.36V165.521H258.458ZM282.784 215.181C282.784 219.307 283.264 222.618 284.224 225.113C285.279 227.512 286.719 229.239 288.542 230.295C290.365 231.35 292.428 231.878 294.731 231.878C297.226 231.878 299.338 231.542 301.065 230.87C302.888 230.199 304.04 229.815 304.519 229.719V234.469C303.656 234.949 302.552 235.381 301.209 235.764C299.961 236.148 298.618 236.436 297.178 236.628C295.739 236.82 294.204 236.916 292.572 236.916C288.35 236.916 284.512 236.196 281.057 234.757C277.602 233.317 274.867 231.014 272.852 227.848C270.933 224.585 269.973 220.315 269.973 215.037V160.339L272.564 159.907L274.148 142.346H282.784V215.181Z" fill="#383634"/>
<path d="M120.114 92V69.3548H120.144L131.754 85.8323L130.394 85.5602L141.973 69.3548H142.034V92H138.889V76.5202L139.071 78.1226L130.968 89.6417H130.908L122.624 78.1226L123.168 76.6411V92H120.114ZM148.222 70.0804H162.583V73.134H151.367V79.4529H161.374V82.5065H151.367V88.9464H163.007V92H148.222V70.0804ZM168.034 70.0804H182.395V73.134H171.178V79.4529H181.186V82.5065H171.178V88.9464H182.818V92H168.034V70.0804ZM186.243 70.0804H200.846V73.134H195.041V92H191.866V73.134H186.243V70.0804Z" fill="#383634"/>
<path d="M32.1791 301.201H35.8677L41.6121 317.437L41.0679 317.225L45.3611 306.16L46.8124 310.453L40.9167 324.028L32.1791 301.201ZM42.8215 301.201H45.9658L52.2243 317.195L51.5893 317.074L56.971 301.201H60.3572L51.7707 323.967L42.8215 301.201ZM64.6433 301.08H79.0045V304.134H67.7877V310.453H77.7951V313.507H67.7877V319.946H79.4277V323H64.6433V301.08ZM90.2295 301.08C92.4467 301.08 94.1902 301.534 95.46 302.441C96.7298 303.348 97.3648 304.739 97.3648 306.613C97.3648 307.802 97.0926 308.83 96.5484 309.697C96.0042 310.544 95.2383 311.209 94.2507 311.692C93.2832 312.176 92.1444 312.448 90.8342 312.509L90.3807 310.816C91.9126 310.856 93.2832 311.128 94.4925 311.632C95.7019 312.116 96.6593 312.801 97.3648 313.688C98.0904 314.555 98.4532 315.593 98.4532 316.802C98.4532 317.911 98.2415 318.858 97.8183 319.644C97.4151 320.43 96.8609 321.075 96.1554 321.579C95.4701 322.063 94.684 322.426 93.7971 322.667C92.9304 322.889 92.0234 323 91.0761 323H84.4548V301.08H90.2295ZM90.804 310.574C91.9529 310.574 92.7893 310.251 93.3134 309.606C93.8375 308.941 94.0995 308.165 94.0995 307.278C94.0995 306.19 93.7568 305.394 93.0715 304.89C92.4064 304.386 91.5094 304.134 90.3807 304.134H87.5992V310.574H90.804ZM90.9249 320.067C92.1141 320.067 93.1219 319.805 93.9483 319.281C94.7747 318.757 95.1879 317.941 95.1879 316.832C95.1879 316.026 94.9662 315.391 94.5228 314.928C94.0793 314.464 93.515 314.131 92.8297 313.93C92.1444 313.728 91.4389 313.627 90.7133 313.627H87.5992V320.067H90.9249ZM138.251 305.222C137.486 304.819 136.659 304.477 135.772 304.194C134.885 303.912 134.029 303.771 133.202 303.771C132.054 303.771 131.146 304.033 130.481 304.557C129.816 305.061 129.484 305.767 129.484 306.674C129.484 307.298 129.705 307.843 130.149 308.306C130.592 308.77 131.167 309.173 131.872 309.516C132.578 309.858 133.323 310.181 134.109 310.483C135.016 310.806 135.893 311.219 136.74 311.723C137.586 312.206 138.282 312.862 138.826 313.688C139.37 314.514 139.642 315.623 139.642 317.014C139.642 318.163 139.35 319.211 138.765 320.158C138.181 321.105 137.344 321.861 136.256 322.426C135.188 322.97 133.898 323.242 132.386 323.242C130.975 323.242 129.635 323.02 128.365 322.577C127.115 322.113 126.037 321.569 125.13 320.944L126.551 318.435C127.256 318.979 128.123 319.453 129.151 319.856C130.179 320.259 131.157 320.46 132.084 320.46C132.769 320.46 133.434 320.349 134.079 320.128C134.724 319.886 135.258 319.513 135.682 319.009C136.125 318.505 136.347 317.84 136.347 317.014C136.347 316.328 136.155 315.744 135.772 315.26C135.389 314.776 134.885 314.363 134.261 314.021C133.656 313.678 133.001 313.376 132.295 313.113C131.61 312.851 130.905 312.569 130.179 312.267C129.474 311.944 128.818 311.551 128.214 311.088C127.629 310.624 127.146 310.06 126.763 309.395C126.4 308.709 126.218 307.883 126.218 306.916C126.218 305.726 126.49 304.698 127.035 303.832C127.599 302.965 128.375 302.28 129.363 301.776C130.35 301.272 131.479 301 132.749 300.959C134.2 300.959 135.47 301.141 136.558 301.504C137.647 301.846 138.604 302.27 139.431 302.773L138.251 305.222ZM143.09 312.055C143.09 310.544 143.372 309.113 143.936 307.762C144.521 306.412 145.327 305.222 146.355 304.194C147.383 303.146 148.572 302.33 149.923 301.746C151.273 301.141 152.714 300.838 154.246 300.838C155.778 300.838 157.219 301.141 158.57 301.746C159.94 302.33 161.14 303.146 162.167 304.194C163.216 305.222 164.032 306.412 164.616 307.762C165.201 309.113 165.493 310.544 165.493 312.055C165.493 313.607 165.201 315.059 164.616 316.409C164.032 317.759 163.216 318.949 162.167 319.977C161.14 321.005 159.94 321.811 158.57 322.395C157.219 322.96 155.778 323.242 154.246 323.242C152.714 323.242 151.273 322.96 149.923 322.395C148.572 321.811 147.383 321.015 146.355 320.007C145.327 318.999 144.521 317.82 143.936 316.469C143.372 315.099 143.09 313.627 143.09 312.055ZM146.355 312.086C146.355 313.577 146.708 314.938 147.413 316.167C148.119 317.397 149.076 318.374 150.286 319.1C151.495 319.825 152.845 320.188 154.337 320.188C155.808 320.188 157.139 319.825 158.328 319.1C159.517 318.374 160.464 317.397 161.17 316.167C161.875 314.938 162.228 313.567 162.228 312.055C162.228 310.544 161.865 309.173 161.14 307.943C160.434 306.694 159.477 305.706 158.267 304.981C157.078 304.255 155.748 303.892 154.276 303.892C152.785 303.892 151.434 304.265 150.225 305.011C149.036 305.736 148.089 306.724 147.383 307.974C146.698 309.203 146.355 310.574 146.355 312.086ZM170.344 301.08H183.466V304.134H173.488V310.785H182.196V313.809H173.488V323H170.344V301.08ZM186.605 301.08H201.208V304.134H195.403V323H192.228V304.134H186.605V301.08ZM203.869 301.201H207.558L213.302 317.437L212.758 317.225L217.051 306.16L218.502 310.453L212.607 324.028L203.869 301.201ZM214.511 301.201H217.656L223.914 317.195L223.279 317.074L228.661 301.201H232.047L223.461 323.967L214.511 301.201ZM231.29 323L240.935 300.173H241.116L250.761 323H247.103L240.088 305.132L242.356 303.65L234.435 323H231.29ZM237.126 314.776H244.986L246.075 317.497H236.188L237.126 314.776ZM260.684 301.08C262.216 301.08 263.576 301.352 264.765 301.897C265.955 302.421 266.882 303.197 267.547 304.225C268.232 305.232 268.575 306.482 268.575 307.974C268.575 308.84 268.444 309.697 268.182 310.544C267.92 311.39 267.496 312.156 266.912 312.841C266.348 313.527 265.582 314.081 264.614 314.504C263.667 314.907 262.498 315.109 261.107 315.109H257.872V323H254.728V301.08H260.684ZM261.047 312.055C262.175 312.055 263.042 311.844 263.647 311.42C264.271 310.977 264.705 310.453 264.947 309.848C265.189 309.223 265.31 308.639 265.31 308.095C265.31 307.692 265.239 307.268 265.098 306.825C264.957 306.361 264.725 305.928 264.402 305.525C264.1 305.101 263.687 304.769 263.163 304.527C262.639 304.265 261.994 304.134 261.228 304.134H257.872V312.055H261.047ZM264.735 313.93L270.419 323H266.731L260.956 313.99L264.735 313.93ZM274.805 301.08H289.166V304.134H277.949V310.453H287.957V313.507H277.949V319.946H289.589V323H274.805V301.08Z" fill="#383634"/>
<path d="M326.265 139.867C325.566 139.561 325.06 138.894 324.746 137.866C324.336 136.521 324.54 135.205 325.358 133.918L328.59 128.781C329.48 127.731 330.523 126.332 331.72 124.584C332.995 122.811 334.474 120.717 336.159 118.301C337.031 116.91 337.865 115.532 338.659 114.166C339.428 112.72 339.94 111.138 340.193 109.417C340.409 108.141 340.5 107.162 340.465 106.481C340.43 105.8 340.364 105.301 340.268 104.985C340.123 104.51 339.756 104.017 339.168 103.504C338.555 102.913 338.097 102.404 337.794 101.978C337.023 101.435 336.115 101.15 335.069 101.123C333.263 101.155 332.126 101.113 331.658 100.996C331.008 100.849 330.135 100.682 329.041 100.497C328.002 100.209 326.781 99.8897 325.377 99.5397C323.863 99.3962 321.985 99.191 319.741 98.9241C317.553 98.554 315.04 98.1101 312.201 97.5925C311.661 97.2385 310.95 96.8932 310.069 96.5566C309.164 96.1409 308.117 95.6823 306.926 95.1808C306.513 94.9609 306.198 94.495 305.981 93.783C305.715 92.9128 305.699 92.0098 305.932 91.0739C306.142 90.0589 306.523 89.4669 307.077 89.298C307.393 89.2014 307.706 89.2356 308.016 89.4006L308.171 89.483C309.076 89.8987 310.485 90.5497 312.399 91.4361C313.255 91.6935 314.191 91.9269 315.206 92.1361C316.197 92.2662 317.267 92.3721 318.416 92.454C319.146 92.5773 320.057 92.7316 321.151 92.9166C322.246 93.1017 323.534 93.3572 325.017 93.683C325.746 93.8064 326.631 94.0122 327.67 94.3005C328.764 94.4856 330.065 94.7806 331.572 95.1856L334.828 95.23C335.612 95.2501 336.393 95.401 337.171 95.6826C337.924 95.885 338.608 96.282 339.22 96.8733C341.74 98.6124 343.434 100.906 344.302 103.754C345.075 106.285 345.095 109.046 344.365 112.036C343.774 114.637 342.234 118.091 339.742 122.396C338.698 124.357 337.352 126.324 335.706 128.297C334.303 129.935 333.251 131.164 332.55 131.983C331.928 132.778 331.33 133.653 330.756 134.606C330.261 135.535 329.385 137.056 328.127 139.169C327.663 139.916 327.042 140.149 326.265 139.867ZM329.906 176.89C329.431 177.035 328.951 176.879 328.466 176.421C326.483 174.173 324.948 171.268 323.862 167.709C323.476 166.443 323.028 164.548 322.517 162.023C322.234 160.812 321.96 159.771 321.694 158.901C321.508 158.007 321.33 157.283 321.162 156.729C320.631 154.989 320.179 153.224 319.806 151.436C319.409 149.568 319.04 147.648 318.698 145.677L316.854 134.955C316.495 132.644 316.01 129.636 315.398 125.931C314.763 122.147 313.962 117.679 312.995 112.526C312.491 109.74 311.992 107.254 311.499 105.07C310.975 103.068 311.385 101.862 312.73 101.452C314.233 100.994 315.311 101.832 315.962 103.968C316.045 104.808 316.122 105.908 316.191 107.271C316.316 108.53 316.486 110.078 316.7 111.915L320.997 134.081C321.412 136.289 321.928 139.115 322.546 142.558C323.164 146.001 324.026 150.105 325.134 154.869L326.624 161.029C326.883 162.161 327.093 163.134 327.255 163.95C327.497 164.741 327.678 165.334 327.798 165.73C328.498 168.024 329.549 169.908 330.95 171.383C331.253 171.81 331.453 172.181 331.549 172.498C331.815 173.368 331.739 174.255 331.324 175.16C331.011 176.12 330.539 176.697 329.906 176.89ZM379.908 152.947C378.191 153.557 376.533 152.938 374.932 151.092C374.653 150.745 374.25 150.133 373.723 149.256C373.196 148.379 372.506 147.249 371.652 145.867C370.732 143.986 369.977 143.351 369.385 143.964C368.723 146.328 367.567 149.058 365.918 152.156C363.828 156.079 362.032 158.27 360.529 158.728C358.868 159.235 357.058 158.404 355.099 156.234C353.467 154.57 352.374 152.828 351.819 151.009C349.961 144.917 349.123 139.336 349.305 134.265C349.411 133.195 349.86 132.54 350.651 132.298C351.363 132.081 352.144 132.232 352.994 132.751C353.844 133.27 354.402 133.964 354.667 134.835C354.812 135.309 354.785 136.355 354.587 137.972C353.977 141.358 354.227 144.87 355.337 148.509C356.543 152.464 357.898 154.213 359.401 153.754C360.113 153.537 361.504 151.859 363.573 148.72C367.198 143.031 369.054 136.499 369.138 129.123C369.244 128.053 369.732 127.385 370.603 127.12C372.027 126.686 372.919 127.062 373.281 128.248C373.523 129.039 373.67 129.946 373.722 130.968C373.853 131.965 373.902 133.118 373.869 134.425C373.914 135.708 374.003 136.848 374.134 137.846C374.265 138.844 374.452 139.738 374.693 140.529C374.862 141.083 375.107 141.743 375.427 142.51C375.723 143.198 376.083 143.953 376.507 144.775C377.627 147.027 378.484 148.279 379.079 148.53C379.079 148.53 379.414 148.211 380.085 147.575C380.81 146.834 381.615 146.07 382.498 145.282C383.437 144.39 384.202 143.638 384.793 143.025C385.44 142.309 385.763 141.951 385.763 141.951C386.554 141.71 387.046 141.906 387.239 142.539C387.432 143.171 387.037 144.286 386.054 145.883C385.151 147.456 384.092 148.946 382.878 150.354C381.665 151.762 380.675 152.626 379.908 152.947ZM400.038 155.626C397.373 156.525 394.645 155.239 391.857 151.766C389.147 148.269 386.585 142.565 384.172 134.654C382.797 130.145 381.62 125.013 380.643 119.258C379.721 113.4 378.985 106.879 378.437 99.6966C376.86 80.6354 378.8 70.2723 384.259 68.6071C386.395 67.9556 388.528 69.4232 390.66 73.0099C392.265 75.7198 393.311 78.2975 393.798 80.7432C395.347 88.6582 394.008 100.567 389.78 116.471C389.419 117.273 389 118.308 388.523 119.578C388.125 120.824 387.628 122.315 387.034 124.053C387.431 125.921 387.816 127.749 388.189 129.538C388.641 131.302 389.108 132.976 389.59 134.558C390.459 137.406 391.589 140.26 392.981 143.122C395.275 147.524 397.292 149.459 399.033 148.928C400.694 148.422 402.03 146.847 403.039 144.204L404.779 137.577C404.982 136.824 405.399 136.35 406.032 136.157C406.823 135.916 407.34 136.191 407.581 136.982C407.629 137.14 407.638 137.31 407.607 137.493C407.655 137.651 407.664 137.821 407.633 138.004C407.366 140.247 407.094 142.189 406.816 143.83C406.594 145.368 406.326 146.617 406.014 147.577C404.72 152.122 402.728 154.805 400.038 155.626ZM385.95 74.5765C381.215 78.615 381.123 92.9108 385.673 117.464C385.838 117.154 386.049 116.571 386.307 115.714C391.275 100.536 392.625 89.2293 390.356 81.793C390.187 81.2392 389.967 80.658 389.695 80.0492C389.398 79.3614 389.038 78.6065 388.615 77.7845C387.488 75.7934 386.6 74.724 385.95 74.5765ZM423.824 142.274C420.343 143.336 417.169 143.136 414.302 141.676C411.515 140.192 409.566 137.63 408.456 133.991C408.215 133.2 408.013 132.397 407.851 131.582C407.768 130.742 407.684 129.903 407.601 129.063C407.434 125.396 408.737 121.021 411.51 115.938C414.661 110.394 417.858 107.127 421.101 106.138C423.791 105.317 425.515 106.434 426.274 109.489C427.378 113.389 426.4 117.838 423.342 122.835C421.981 124.893 420.504 126.857 418.913 128.726C417.4 130.571 415.576 131.819 413.44 132.471L413.321 132.507C415.127 137.577 418.562 139.339 423.625 137.795C425.286 137.288 427.024 136.325 428.84 134.907C428.974 134.779 429.199 134.667 429.516 134.571C430.544 134.257 431.215 134.615 431.529 135.643C431.746 136.355 431.559 137.017 430.968 137.63C429.211 139.809 426.83 141.357 423.824 142.274ZM414.824 125.952C417.107 124.65 418.89 122.983 420.172 120.949C422.461 117.397 423.243 114.434 422.519 112.061L422.447 111.824C422.278 111.27 421.947 110.895 421.455 110.699C420.963 110.504 420.662 110.509 420.552 110.715C418.1 111.463 416.032 114.04 414.349 118.444C414.123 119.119 413.877 120.015 413.613 121.133C413.325 122.172 413.057 123.421 412.811 124.88C412.78 125.063 412.788 125.233 412.837 125.391C413.054 126.103 413.716 126.29 414.824 125.952ZM442.55 132.929C441.759 133.171 440.967 132.418 440.175 130.671C439.358 128.845 438.648 126.943 438.045 124.965C437.659 123.699 437.309 122.552 436.995 121.524C436.737 120.392 436.523 119.549 436.354 118.995C436.112 118.204 435.85 117.203 435.567 115.993C435.26 114.703 434.945 113.243 434.62 111.612C433.868 108.296 433.239 105.808 432.732 104.146C432.491 103.355 432.222 102.616 431.926 101.928C431.605 101.161 431.348 100.461 431.155 99.8282L431.011 99.3535C430.721 98.4042 431.09 97.7727 432.119 97.459C432.91 97.2177 433.49 97.5596 433.858 98.4848C434.282 99.3067 434.944 101.05 435.843 103.716C436.743 106.382 437.908 109.917 439.339 114.323C439.701 115.51 440.119 116.031 440.594 115.886C441.147 115.717 441.7 114.554 442.253 112.397C443.389 107.9 444.903 103.936 446.797 100.504C448.219 98.0816 449.761 96.6168 451.423 96.11C453.4 95.5067 455.367 95.8581 457.322 97.1641C457.965 97.5731 458.384 98.094 458.577 98.7269C458.89 99.7553 458.612 100.402 457.742 100.668C457.425 100.764 457.033 100.754 456.565 100.637L456.483 100.792C454.642 100.143 453.484 99.8912 453.009 100.036C451.111 100.615 449.645 102.187 448.611 104.75C445.008 113.632 443.644 121.917 444.519 129.605C444.709 131.363 444.053 132.471 442.55 132.929ZM462.629 84.7794C461.443 85.1414 460.672 84.5983 460.316 83.1502L460.127 78.279C460.099 77.3364 460.52 76.7324 461.39 76.4669C463.21 75.9119 464.191 76.4342 464.333 78.0338C464.592 79.1654 464.689 80.4761 464.624 81.9657C464.56 83.4554 463.895 84.3933 462.629 84.7794ZM469.878 123.426C469.166 123.643 468.595 123.471 468.165 122.911C467.583 122.137 467.059 121.129 466.594 119.888C466.129 118.646 465.695 117.222 465.291 115.616C464.894 113.748 464.63 111.321 464.497 108.335C464.443 105.325 464.534 101.795 464.769 97.7459C464.844 96.8583 465.277 96.2938 466.068 96.0525C467.571 95.594 468.29 96.1095 468.226 97.5992C468.223 98.7241 468.26 99.837 468.337 100.938C468.413 102.039 468.489 103.139 468.566 104.24C468.725 106.18 468.903 107.899 469.101 109.395C469.298 110.891 469.565 112.193 469.903 113.301C471.085 117.177 471.74 119.183 471.868 119.317C472.346 120.035 472.338 120.859 471.844 121.788C471.325 122.639 470.67 123.184 469.878 123.426Z" fill="#383634"/>
</svg>
