<?xml version="1.0" standalone="no"?>
<!DOCTYPE svg PUBLIC "-//W3C//DTD SVG 20010904//EN"
 "http://www.w3.org/TR/2001/REC-SVG-20010904/DTD/svg10.dtd">
<svg version="1.0" xmlns="http://www.w3.org/2000/svg"
 width="700.000000pt" height="700.000000pt" viewBox="0 0 700.000000 700.000000"
 preserveAspectRatio="xMidYMid meet">
<metadata>
Created by potrace 1.14, written by Peter Selinger 2001-2017
</metadata>
<g transform="translate(0.000000,700.000000) scale(0.100000,-0.100000)"
fill="#000000" stroke="none">
<path d="M2787 6785 c-24 -24 -25 -31 -22 -108 10 -216 22 -364 31 -379 6 -10
-30 -28 -58 -28 -40 0 -290 -67 -393 -105 -143 -53 -380 -170 -426 -211 -8 -8
-19 -14 -23 -14 -23 0 -249 -182 -340 -273 -308 -312 -492 -670 -551 -1077
-14 -93 -13 -394 0 -485 51 -334 177 -624 386 -891 79 -102 251 -272 359 -355
354 -273 804 -440 1250 -465 97 -5 107 -8 138 -35 18 -16 42 -29 53 -29 11 0
18 -3 15 -8 -2 -4 -7 -50 -10 -102 -6 -88 -11 -156 -21 -285 -2 -27 -8 -95
-12 -150 -9 -114 -9 -481 1 -825 3 -129 9 -334 12 -455 11 -440 12 -487 16
-490 1 -2 38 -5 82 -7 l78 -3 -2 115 c-1 63 -3 165 -5 225 -3 105 -8 272 -21
830 -10 400 -8 506 11 690 5 46 12 136 21 280 4 55 8 111 9 125 2 14 3 48 4
76 1 33 5 51 14 51 72 2 271 36 375 64 109 29 265 80 276 90 6 5 15 9 22 9 21
0 205 90 307 152 151 89 280 190 413 322 131 132 214 235 300 376 257 423 329
919 203 1400 -138 523 -520 979 -1044 1245 -66 34 -133 67 -150 73 -108 41
-151 56 -240 83 -125 37 -314 75 -425 85 -47 4 -89 8 -95 9 -5 1 -58 3 -117 3
l-107 2 -11 43 c-16 63 -131 379 -148 405 -35 54 -114 68 -155 27z"/>
<path d="M5747 3970 c-32 -10 -50 -29 -73 -75 -8 -16 -19 -37 -24 -45 -23 -36
-199 -369 -215 -405 -29 -69 -71 -194 -125 -374 -41 -138 -51 -182 -46 -215 6
-35 -1 -59 -39 -151 -49 -117 -65 -143 -65 -108 0 32 -110 344 -133 377 -28
40 -80 60 -121 46 -55 -18 -59 -36 -53 -257 3 -109 7 -207 10 -218 17 -69 32
-120 58 -196 16 -48 29 -93 29 -100 1 -8 13 -32 28 -54 l28 -40 -100 -267
c-55 -147 -101 -266 -103 -265 -1 1 -8 34 -17 74 -12 61 -62 199 -149 412 -34
84 -110 127 -172 99 -32 -14 -55 -65 -50 -108 2 -19 6 -75 10 -125 12 -185 23
-280 41 -349 18 -69 115 -340 138 -384 8 -16 22 -32 30 -35 11 -5 6 -28 -30
-124 -55 -145 -80 -215 -101 -273 -8 -25 -17 -46 -18 -48 -2 -2 -8 14 -15 35
-23 74 -183 384 -208 403 -32 26 -94 42 -127 34 -14 -3 -36 -20 -50 -37 -24
-31 -26 -70 -11 -192 2 -16 7 -59 11 -95 4 -36 9 -72 10 -80 9 -52 19 -106 20
-110 19 -77 148 -361 176 -386 10 -9 19 -23 19 -31 0 -7 -17 -60 -39 -118 -21
-58 -34 -105 -29 -105 18 0 153 33 169 41 9 4 31 49 49 99 l32 90 43 0 c38 0
58 11 182 99 162 115 203 153 308 281 42 52 87 106 98 120 36 43 55 91 50 129
-7 51 -20 71 -56 86 -41 17 -68 11 -130 -29 -29 -18 -79 -50 -112 -71 -119
-76 -180 -118 -194 -134 -17 -20 -21 -31 60 188 37 99 70 176 79 179 16 6 311
201 320 211 3 3 21 18 42 33 20 15 82 78 139 140 56 62 121 134 145 159 73 79
78 175 12 210 -41 22 -75 11 -208 -70 -73 -45 -134 -81 -136 -81 -1 0 -30 -18
-63 -40 -69 -46 -76 -48 -60 -19 6 12 24 58 40 103 67 192 106 281 120 277 23
-6 70 -1 92 10 46 25 284 219 313 255 84 107 192 251 202 271 27 49 4 134 -40
149 -13 4 -34 6 -48 5 -23 -3 -230 -138 -318 -209 l-43 -34 14 33 c8 19 24 59
37 89 44 108 53 125 72 146 18 21 211 404 248 493 16 41 73 225 85 276 2 11
21 76 41 145 40 141 43 176 18 218 -14 24 -56 56 -67 51 -1 0 -15 -5 -30 -9z"/>
<path d="M1556 2354 c-41 -42 -39 -53 81 -364 13 -36 34 -90 45 -120 11 -30
37 -89 57 -130 47 -100 264 -446 306 -490 33 -34 122 -218 150 -308 l13 -43
-96 98 c-103 105 -436 370 -481 383 -34 9 -59 5 -81 -15 -31 -28 -30 -62 3
-108 17 -23 33 -44 37 -47 3 -3 59 -68 125 -145 115 -136 207 -232 258 -271
14 -10 81 -65 149 -120 134 -109 156 -124 185 -124 14 0 26 -27 61 -138 23
-75 47 -145 52 -154 6 -10 10 -25 10 -33 0 -9 6 -28 14 -43 16 -32 67 -48 327
-105 l107 -23 16 55 c15 54 40 203 52 314 10 95 -45 160 -113 132 -27 -11 -41
-34 -97 -148 -36 -74 -77 -163 -91 -198 -13 -35 -24 -57 -25 -49 0 8 -32 111
-70 229 -39 118 -68 221 -66 228 3 7 12 13 20 13 20 0 54 37 71 76 24 58 93
269 99 304 4 19 9 110 12 201 l7 165 -32 36 c-17 20 -42 39 -56 42 -33 8 -87
-15 -102 -45 -51 -104 -126 -290 -144 -359 -11 -41 -12 -43 -19 -20 -8 27 -41
100 -84 189 -17 36 -25 69 -25 100 1 34 -11 75 -46 156 -26 61 -65 153 -87
205 -61 147 -103 224 -199 368 -49 73 -89 137 -89 142 0 4 -3 10 -7 12 -5 2
-29 35 -55 74 -67 103 -138 131 -192 78z"/>
<path d="M1860 548 c-32 -12 -49 -37 -50 -75 0 -44 36 -68 251 -166 109 -50
320 -129 327 -123 8 9 -99 102 -246 213 -156 117 -151 113 -174 131 -25 20
-80 30 -108 20z"/>
</g>
</svg>
