<svg width="517" height="860" viewBox="0 0 517 860" fill="none" xmlns="http://www.w3.org/2000/svg">
<rect x="8.68908" y="8.68908" width="499.622" height="841.809" rx="249.811" fill="#A5C083" stroke="#F8EFD3" stroke-width="17.3782"/>
<path d="M256.186 561.017C328.069 561.017 386.307 502.321 386.307 429.959C386.307 357.597 328.069 298.902 256.186 298.902C184.303 298.902 126.065 357.597 126.065 429.959C126.065 502.321 184.303 561.017 256.186 561.017Z" fill="#F4CB4E" stroke="#4B4B4B" stroke-width="5.61675"/>
<path d="M112.961 278.309L159.767 341.03L156.023 347.582L105.472 324.179L144.789 364.433L142.917 368.177L61.4741 347.582L134.492 385.027L129.811 398.133H85.8133L127.003 410.303V417.792L46.4961 427.153L127.003 437.45V445.876L88.6217 461.79H130.747L131.683 468.343L64.2825 504.851L139.172 487.065L144.789 498.299L113.897 529.191L153.214 509.532L157.895 515.149L113.897 570.38L168.192 527.318L176.617 533.871L161.639 568.508L185.979 540.424L195.34 546.977L172.873 618.123L210.318 552.594L224.36 557.274L226.232 592.847L238.402 560.083L248.699 561.019L257.124 634.037L263.677 561.019H272.102L288.016 596.592L286.144 557.274L294.569 555.402L329.206 617.186L310.483 549.785L321.717 545.105L346.056 568.508L333.886 536.68L343.248 531.063L396.607 574.125L353.545 517.021L361.97 506.724L392.862 517.021L370.395 494.554L373.204 485.193L441.541 506.724L379.757 472.087L384.437 461.79L422.818 458.045L386.309 443.067V436.514L463.072 429.025L386.309 417.792L384.437 406.558L418.138 393.453H381.629L379.757 388.772L445.285 350.391L373.204 371.922L366.651 359.752L395.671 331.668L359.162 350.391L353.545 343.838L403.16 279.245L341.375 331.668L334.823 326.052L350.737 282.99L321.717 317.626L310.483 312.01L334.823 236.184L299.25 306.393L290.825 303.585L286.144 271.756L273.038 299.84L265.549 298.904L255.252 243.673L246.827 298.904H237.466L223.424 271.756L221.551 303.585L214.999 305.457L181.298 253.97L199.084 312.01L191.595 315.754L158.831 279.245L177.554 326.052L172.873 329.796L112.961 278.309Z" stroke="#4B4B4B" stroke-width="7.489" stroke-linecap="round"/>
<path d="M186.905 323.59L221.309 320.801L252.924 329.169L285.469 341.258L304.067 355.205L327.313 376.592L344.98 405.418L357.068 431.454L361.718 451.91L364.507 475.157V498.403L332.892 535.598H327.313L344.98 510.491V498.403L340.331 486.315L332.892 482.596L323.594 486.315L317.085 492.824L310.576 498.403L304.067 503.053H296.628L292.908 498.403L290.119 492.824V486.315L285.469 482.596L279.89 479.806H275.241L273.381 473.297L275.241 469.578L279.89 465.858L285.469 460.279L273.381 465.858L267.802 469.578L263.153 467.718V463.069L260.363 457.49L259.433 452.84L253.854 456.56L251.065 460.279L245.486 465.858H238.977L236.187 460.279V450.981L235.257 440.752L231.538 431.454L228.748 419.366L226.888 410.997L224.099 405.418L220.379 399.839L212.941 397.049L204.572 386.821L198.063 371.943L187.835 361.714L172.957 352.416H160.869L152.5 353.346L182.255 324.52M242.696 381.241L238.977 380.312L235.257 384.031L233.397 388.68L231.538 394.259M231.538 394.259L225.959 400.768M231.538 394.259L238.977 402.628M257.574 387.75L250.135 395.189V400.768L243.626 408.207" stroke="#4B4B4B" stroke-width="7.43885" stroke-linecap="round"/>
</svg>
