<svg width="332" height="902" viewBox="0 0 332 902" fill="none" xmlns="http://www.w3.org/2000/svg">
<ellipse cx="144.258" cy="167.373" rx="144.258" ry="130.05" fill="#596671"/>
<path d="M122.399 895.761L120.358 873.312C117.003 836.41 119.407 799.21 127.482 763.046L132.59 740.17C137.782 716.921 139.1 692.974 136.491 669.295V669.295C134.391 650.235 129.768 631.539 122.743 613.696L119.874 606.412C106.041 571.28 85.1243 539.371 58.4259 512.673L54.6416 508.889" stroke="#303030" stroke-width="10.9286" stroke-linecap="round"/>
<path d="M122.947 894.126L119.179 825.843C118.777 818.557 119.004 811.25 119.857 804.002V804.002C121.895 786.677 127.479 769.958 136.262 754.886L149.453 732.251C161.232 712.036 175.76 693.555 192.621 677.334L210.375 660.254" stroke="#303030" stroke-width="10.9286" stroke-linecap="round"/>
<path d="M126.77 893.576L125.415 877.533C121.601 832.346 124.068 786.85 132.748 742.341L140.977 700.14L160.648 629.651L175.875 584.649C182.08 566.308 191.053 549.023 202.481 533.393V533.393C215.654 515.377 231.898 499.822 250.468 487.442L281.409 466.814" stroke="#303030" stroke-width="10.9286" stroke-linecap="round"/>
<path d="M117.481 892.487L119.211 837.133C120.241 804.176 124.59 771.407 132.192 739.323L152.999 651.511L208.189 501.243L218.025 458.621" stroke="#303030" stroke-width="10.9286" stroke-linecap="round"/>
<path d="M122.403 889.747V808.876L137.156 681.011L137.203 680.049C138.626 650.877 137.442 621.636 133.664 592.675L126.228 535.661L106.01 456.975" stroke="#303030" stroke-width="10.9286" stroke-linecap="round"/>
<path d="M121.856 890.306V793.041L141.528 614.359L152.457 505.073L148.632 351.526L152.457 298.522L148.632 229.672L143.167 168.472V117.107L136.61 61.918" stroke="#303030" stroke-width="10.9286" stroke-linecap="round"/>
<path d="M106.553 456.982L84.149 388.132L70.4883 358.078" stroke="#303030" stroke-width="10.9286" stroke-linecap="round"/>
<path d="M218.573 456.435L242.616 391.41L277.588 297.97L306.002 230.213" stroke="#303030" stroke-width="10.9286" stroke-linecap="round"/>
<path d="M36.0924 305.492C35.7193 304.501 35.6316 303.425 35.8392 302.387V302.387C36.5284 298.939 40.1608 296.948 43.4382 298.22L44.9221 298.796C46.2741 299.321 47.4296 300.253 48.2289 301.463L64.0033 325.346C66.8618 329.674 69.3168 334.255 71.3376 339.032L81.9351 364.083C82.6105 365.679 82.7196 367.459 82.2442 369.126V369.126C80.9574 373.639 75.9273 375.917 71.6863 373.908L71.4535 373.798C70.1149 373.164 68.9841 372.163 68.1927 370.91L54.8456 349.793C51.439 344.403 48.5901 338.68 46.3431 332.713L36.0924 305.492Z" fill="#303030"/>
<path d="M311.925 194.937C312.431 194.007 313.187 193.237 314.109 192.716V192.716C317.168 190.984 321.05 192.43 322.23 195.742L322.764 197.242C323.25 198.608 323.3 200.092 322.907 201.488L315.145 229.037C313.738 234.03 311.876 238.882 309.582 243.534L297.552 267.929C296.786 269.484 295.51 270.73 293.938 271.46V271.46C289.682 273.436 284.669 271.119 283.417 266.596L283.349 266.348C282.953 264.921 282.972 263.41 283.402 261.993L290.658 238.088C292.51 231.986 294.979 226.09 298.026 220.488L311.925 194.937Z" fill="#303030"/>
<path d="M117.475 10.1111C117.397 8.85195 117.738 7.60235 118.445 6.55755V6.55755C120.114 4.09188 123.397 3.32245 125.987 4.79001L127.221 5.48895C128.72 6.33797 129.867 7.69316 130.457 9.31144L137.645 29.033C139.117 33.0711 140.107 37.2691 140.593 41.5395L142.806 60.9553C143.039 62.9997 142.445 65.0525 141.157 66.6567V66.6567C138.656 69.7689 134.194 70.4574 130.871 68.2435L130.684 68.1182C129.216 67.1401 128.115 65.7019 127.553 64.0298L121.831 46.9856C120.147 41.9686 119.128 36.7524 118.8 31.4705L117.475 10.1111Z" fill="#303030"/>
<path d="M172.634 70.0102C173.494 69.1116 174.63 68.5251 175.861 68.3433V68.3433C178.733 67.9192 181.453 69.7588 182.128 72.5819L182.45 73.9297C182.846 75.5818 182.637 77.3208 181.862 78.8324L172.571 96.9513C170.659 100.68 168.309 104.167 165.572 107.34L153.2 121.678C151.874 123.215 149.987 124.154 147.961 124.286V124.286C144.077 124.538 140.635 121.801 140.005 117.96L139.969 117.741C139.688 116.025 139.987 114.263 140.821 112.736L149.17 97.4408C151.642 92.9118 154.703 88.7298 158.272 85.0036L172.634 70.0102Z" fill="#303030"/>
<path d="M173.745 133.751C174.728 132.868 175.989 132.359 177.309 132.312V132.312C180.022 132.216 182.417 134.069 183.005 136.718L183.294 138.02C183.685 139.778 183.406 141.619 182.511 143.182L173.578 158.788C171.628 162.193 169.241 165.328 166.477 168.113L154.832 179.846C153.317 181.372 151.227 182.187 149.079 182.089V182.089C145.438 181.924 142.425 179.203 141.889 175.598L141.858 175.383C141.586 173.557 141.965 171.693 142.927 170.118L150.861 157.125C153.383 152.995 156.492 149.254 160.092 146.02L173.745 133.751Z" fill="#303030"/>
<path d="M172.512 196.941C173.608 195.994 175.019 195.494 176.466 195.541V195.541C178.957 195.622 181.113 197.296 181.809 199.688L182.168 200.92C182.718 202.813 182.504 204.847 181.571 206.584L174.407 219.923C172.685 223.128 170.493 226.056 167.902 228.611L158.208 238.172C156.533 239.823 154.203 240.632 151.865 240.372V240.372C148.536 240.001 145.815 237.548 145.102 234.276L145.055 234.06C144.624 232.083 144.947 230.017 145.962 228.266L152.257 217.398C154.514 213.503 157.404 210.011 160.809 207.066L172.512 196.941Z" fill="#303030"/>
<path d="M175.718 244.431C176.697 243.408 178.019 242.783 179.43 242.676V242.676C181.989 242.482 184.367 244.01 185.253 246.419L185.702 247.641C186.368 249.451 186.307 251.448 185.533 253.214L179.105 267.882C177.606 271.301 175.623 274.486 173.216 277.34L163.861 288.428C162.377 290.187 160.19 291.199 157.889 291.191V291.191C154.44 291.179 151.411 288.897 150.447 285.585L150.386 285.373C149.834 283.474 149.998 281.438 150.848 279.652L156.594 267.574C158.576 263.407 161.212 259.585 164.403 256.252L175.718 244.431Z" fill="#303030"/>
<path d="M116.602 264.158C115.983 263.005 115.801 261.667 116.089 260.39V260.39C116.644 257.921 118.829 256.161 121.36 256.143L122.622 256.134C124.406 256.122 126.127 256.787 127.439 257.996L139.42 269.042C142.116 271.528 144.459 274.372 146.382 277.495L154.185 290.167C155.302 291.98 155.579 294.187 154.947 296.22V296.22C153.937 299.467 150.837 301.601 147.444 301.385L147.235 301.372C145.41 301.256 143.687 300.489 142.379 299.21L132.578 289.622C129.341 286.456 126.606 282.815 124.467 278.825L116.602 264.158Z" fill="#303030"/>
<path d="M116.133 211.635C115.38 210.45 115.11 209.022 115.377 207.644V207.644C115.817 205.375 117.629 203.624 119.912 203.263L121.103 203.075C122.99 202.776 124.919 203.239 126.466 204.361L137.57 212.417C140.312 214.406 142.728 216.808 144.733 219.538L151.985 229.414C153.334 231.251 153.768 233.605 153.162 235.802V235.802C152.336 238.797 149.738 240.964 146.644 241.241L146.433 241.26C144.48 241.434 142.533 240.862 140.984 239.658L132.057 232.718C128.745 230.143 125.901 227.016 123.652 223.474L116.133 211.635Z" fill="#303030"/>
<path d="M104.682 142.63C103.977 141.544 103.682 140.24 103.853 138.956V138.956C104.189 136.416 106.252 134.456 108.805 134.25L110.071 134.148C111.832 134.006 113.582 134.534 114.97 135.626L128.067 145.931C130.981 148.224 133.573 150.899 135.772 153.886L144.817 166.171C146.067 167.869 146.529 170.023 146.085 172.084V172.084C145.361 175.448 142.403 177.86 138.962 177.894L138.754 177.896C136.942 177.914 135.184 177.286 133.794 176.125L123.006 167.117C119.494 164.184 116.441 160.741 113.949 156.903L104.682 142.63Z" fill="#303030"/>
<path d="M104.855 84.7391C104.155 83.5079 103.923 82.0659 104.199 80.677V80.677C104.735 77.9889 107.053 76.0252 109.793 75.9394L111.159 75.8966C113.088 75.8362 114.968 76.5109 116.418 77.7841L129.686 89.4308C132.671 92.0509 135.282 95.0679 137.447 98.3976L146.236 111.914C147.492 113.846 147.852 116.227 147.222 118.443V118.443C146.216 121.985 142.916 124.378 139.237 124.234L139.011 124.225C137.033 124.147 135.149 123.363 133.701 122.014L122.831 111.888C119.244 108.546 116.186 104.677 113.764 100.415L104.855 84.7391Z" fill="#303030"/>
<path d="M309.177 272.706C310.297 271.941 311.652 271.596 313.001 271.734V271.734C315.731 272.012 317.883 274.182 318.138 276.914L318.264 278.262C318.436 280.103 317.912 281.941 316.794 283.415L305.889 297.797C303.491 300.959 300.684 303.79 297.542 306.215L284.427 316.334C282.679 317.683 280.439 318.225 278.268 317.825V317.825C274.644 317.156 271.987 314.036 271.905 310.352L271.901 310.131C271.858 308.236 272.487 306.386 273.675 304.909L283.238 293.021C286.307 289.206 289.92 285.863 293.963 283.101L309.177 272.706Z" fill="#303030"/>
<path d="M255.718 260.795C255.691 259.439 256.143 258.117 256.996 257.062V257.062C258.723 254.929 261.716 254.315 264.143 255.596L265.34 256.227C266.975 257.09 268.228 258.535 268.85 260.276L274.924 277.273C276.26 281.01 277.094 284.908 277.404 288.865L278.702 305.379C278.875 307.581 278.103 309.751 276.581 311.35V311.35C274.039 314.018 269.973 314.536 266.844 312.589L266.657 312.472C265.047 311.47 263.843 309.933 263.256 308.13L258.535 293.621C257.02 288.966 256.199 284.112 256.098 279.217L255.718 260.795Z" fill="#303030"/>
<path d="M291.345 328.956C292.501 328.257 293.858 327.963 295.199 328.122V328.122C298.318 328.49 300.642 331.175 300.558 334.314L300.518 335.814C300.469 337.658 299.762 339.423 298.523 340.79L283.757 357.088C280.713 360.447 277.279 363.431 273.528 365.975L256.604 377.453C254.78 378.69 252.536 379.141 250.376 378.705V378.705C246.248 377.871 243.422 374.046 243.838 369.855L243.861 369.617C244.048 367.737 244.858 365.974 246.162 364.607L259.152 350.995C263.006 346.957 267.378 343.447 272.155 340.559L291.345 328.956Z" fill="#303030"/>
<path d="M267.793 387.896C269.051 387.107 270.549 386.792 272.018 387.008V387.008C274.936 387.436 277.156 389.849 277.341 392.793L277.432 394.251C277.559 396.271 276.92 398.265 275.641 399.835L263.496 414.75C260.8 418.06 257.672 420.993 254.194 423.47L239.844 433.69C237.875 435.092 235.4 435.584 233.045 435.041V435.041C229.185 434.152 226.46 430.7 226.492 426.738L226.494 426.498C226.511 424.423 227.265 422.421 228.622 420.851L239.231 408.568C242.674 404.582 246.693 401.132 251.156 398.332L267.793 387.896Z" fill="#303030"/>
<path d="M203.633 381.258C203.439 379.553 203.884 377.837 204.883 376.441V376.441C206.674 373.937 209.902 372.915 212.808 373.931L214.287 374.448C216.493 375.22 218.314 376.817 219.366 378.905L227.963 395.968C229.979 399.97 231.403 404.243 232.19 408.654L235.227 425.669C235.717 428.415 234.962 431.237 233.165 433.37V433.37C230.499 436.534 226.077 437.582 222.275 435.949L222.031 435.844C219.828 434.897 218.051 433.172 217.039 430.998L210.316 416.549C207.98 411.527 206.469 406.16 205.842 400.656L203.633 381.258Z" fill="#303030"/>
<path d="M227.008 315.221C226.898 313.825 227.262 312.432 228.041 311.268V311.268C229.807 308.631 233.275 307.745 236.09 309.211L237.442 309.915C239.137 310.798 240.456 312.264 241.156 314.043L249.207 334.498C250.884 338.761 252.037 343.213 252.638 347.754L255.316 367.974C255.616 370.237 254.983 372.525 253.562 374.313V374.313C250.912 377.646 246.19 378.473 242.565 376.239L242.357 376.111C240.69 375.083 239.42 373.523 238.751 371.683L232.34 354.041C230.413 348.737 229.211 343.197 228.768 337.572L227.008 315.221Z" fill="#303030"/>
<path d="M36.6674 371.483C36.1386 370.859 35.7835 370.107 35.6379 369.303V369.303C35.0958 366.306 37.5324 363.606 40.5686 363.839L41.9324 363.944C43.0503 364.029 44.1183 364.443 45.0028 365.132L65.5116 381.108C69.1112 383.912 72.4677 387.015 75.5454 390.384L92.2879 408.709C93.1919 409.698 93.7525 410.953 93.8865 412.286V412.286C94.292 416.324 90.7895 419.664 86.7759 419.068L86.5521 419.035C85.4205 418.867 84.3546 418.399 83.4653 417.679L65.7504 403.345C61.3899 399.817 57.3691 395.888 53.7406 391.611L36.6674 371.483Z" fill="#303030"/>
<path d="M55.367 427.177C54.7485 426.431 54.3579 425.523 54.2419 424.562V424.562C53.8761 421.529 56.2694 418.871 59.3233 418.917L60.7131 418.939C62.0391 418.959 63.3245 419.4 64.3835 420.198L83.8172 434.85C87.3948 437.547 90.707 440.579 93.7088 443.905L109.167 461.034C110.229 462.211 110.845 463.723 110.907 465.307V465.307C111.066 469.384 107.611 472.675 103.547 472.318L103.325 472.299C101.975 472.18 100.689 471.671 99.6241 470.832L82.9686 457.723C78.6402 454.316 74.6843 450.46 71.1671 446.221L55.367 427.177Z" fill="#303030"/>
<path d="M119.461 421.101C119.971 420.048 120.828 419.203 121.887 418.707V418.707C124.179 417.634 126.912 418.406 128.304 420.519L128.979 421.545C129.857 422.878 130.215 424.487 129.986 426.066L127.519 443.054C126.993 446.67 126.014 450.206 124.604 453.577L118.485 468.209C117.749 469.968 116.318 471.343 114.531 472.008V472.008C111.348 473.193 107.776 471.882 106.116 468.919L106.019 468.746C105.22 467.319 104.936 465.661 105.215 464.049L107.707 449.663C108.476 445.225 109.862 440.917 111.825 436.864L119.461 421.101Z" fill="#303030"/>
<path d="M100.031 362.64C100.628 361.252 101.722 360.139 103.098 359.517V359.517C105.514 358.426 108.358 359.034 110.116 361.018L111.016 362.034C112.38 363.573 113.089 365.584 112.993 367.638L112.229 383.888C112.047 387.747 111.297 391.559 110.001 395.199L105.082 409.02C104.259 411.332 102.443 413.154 100.134 413.985V413.985C96.7826 415.191 93.0354 414.095 90.862 411.273L90.7204 411.089C89.433 409.417 88.8121 407.327 88.978 405.223L90.0417 391.735C90.4174 386.971 91.5726 382.301 93.4612 377.911L100.031 362.64Z" fill="#303030"/>
</svg>
