<svg width="520" height="865" viewBox="0 0 520 865" fill="none" xmlns="http://www.w3.org/2000/svg">
<rect x="8.7395" y="8.7395" width="502.521" height="846.694" rx="251.26" fill="#E9A14E" stroke="#F8EFD3" stroke-width="17.479"/>
<path d="M139.833 380.168L145.982 375.777C146.978 375.065 148.048 374.463 149.173 373.981L152.452 372.575C154.175 371.837 156.11 371.756 157.889 372.349V372.349C158.232 372.464 158.567 372.602 158.891 372.764L160.59 373.614L167.144 376.891L169.329 377.983L171.514 379.076L176.976 382.353L178.909 383.32C179.076 383.403 179.228 383.513 179.36 383.645V383.645C180.272 384.557 179.906 386.11 178.682 386.518L174.791 387.815L160.59 393.277L152.568 395.129C148.521 396.062 144.298 395.902 140.334 394.663L130.193 391.494C129.387 391.242 128.751 390.618 128.483 389.816V389.816C128.094 388.647 128.568 387.364 129.625 386.73L133.279 384.538V384.538C134.732 383.811 136.118 382.955 137.418 381.98L139.833 380.168Z" fill="#FFF9E4"/>
<path d="M125.631 388.908L137.648 395.463H152.942L166.051 393.278L179.16 387.816L183.53 385.631L182.438 387.816V388.908V390L190.085 398.74L208.656 390L239.244 372.521L245.799 381.261L247.984 390L267.648 395.463L285.127 396.555L290.589 395.463H304.791L314.622 392.185L369.244 376.891L380.169 381.261L386.723 383.446L408.572 388.908L423.866 380.169L436.975 373.614L457.732 369.244H464.286L470.841 421.681L475.211 487.227L454.454 520L428.236 537.479L387.816 517.816L343.026 503.614L335.379 500.337L331.009 494.874V489.412L337.564 482.858L347.396 476.303L349.58 470.841H334.286L293.866 468.656L262.185 467.563L240.337 464.286L247.984 457.732L235.967 454.454H208.656L197.732 445.715L183.53 433.698L167.143 428.236L152.942 419.496L144.202 411.849L125.631 388.908Z" fill="#A5C083"/>
<path d="M197.916 377.124C199.975 376.242 201.963 375.202 203.862 374.015L218.488 364.874L221.521 363.054C223.121 362.094 224.91 361.49 226.765 361.284L230.396 360.881C232.507 360.646 234.355 359.357 235.306 357.457V357.457C235.74 356.587 236.372 355.831 237.149 355.248L237.259 355.165C239.17 353.732 241.69 353.399 243.908 354.286L244.758 354.626C245.449 354.902 246.1 355.268 246.695 355.715L250.168 358.32V358.32C251.727 359.359 251.727 361.65 250.168 362.689L243.614 367.059L229.412 375.799L207.563 386.723L193.096 394.286C186.254 397.862 179.555 389.283 184.684 383.512V383.512C185.363 382.749 186.201 382.145 187.14 381.742L197.916 377.124Z" fill="#FFF9E4"/>
<path d="M266.315 354.223L280.225 347.122V347.122C283.383 345.237 286.273 342.935 288.816 340.279L289.742 339.311L291.645 337.466C291.839 337.278 292.068 337.13 292.32 337.033V337.033C293.174 336.701 294.144 336.986 294.683 337.727L297.643 341.794C297.988 342.268 298.283 342.776 298.524 343.31L300.182 346.986C300.531 347.761 300.592 348.636 300.351 349.451V349.451C300.119 350.241 299.619 350.925 298.938 351.387L297.392 352.438C296.698 352.909 296.146 353.561 295.797 354.323V354.323C295.21 355.605 295.244 357.085 295.89 358.338L296.4 359.327C296.837 360.175 297.447 360.924 298.189 361.524L298.634 361.883C299.05 362.22 299.438 362.59 299.792 362.991L299.861 363.07C300.912 364.258 301.688 365.663 302.136 367.184L302.593 368.734C302.81 369.471 302.92 370.235 302.92 371.002V371.002C302.92 372.34 303.254 373.656 303.892 374.831L306.581 379.786L313.775 390.814C314.683 392.207 313.234 393.932 311.705 393.277V393.277V393.277C310.548 392.828 309.249 392.926 308.172 393.544L306.019 394.778C304.024 395.922 301.676 396.287 299.428 395.803L296.068 395.079C293.89 394.61 291.645 394.544 289.443 394.882L278.719 396.532C278.621 396.547 278.522 396.555 278.423 396.555V396.555C276.982 396.555 276.041 395.042 276.679 393.749L280.591 385.822L284.984 375.88L288.644 363.454L289.564 361.075C289.672 360.795 289.603 360.478 289.387 360.269V360.269C289.022 359.915 288.416 360.023 288.195 360.482L286.082 364.874L283.519 371.975L282.523 375.356C282.212 376.413 281.801 377.439 281.296 378.418V378.418C280.827 379.328 280.439 380.278 280.136 381.256L279.493 383.336L277.036 388.738C275.914 391.204 273.925 393.172 271.446 394.267V394.267C269.673 395.05 267.726 395.353 265.799 395.145L262.729 394.813C260.017 394.52 257.381 393.738 254.949 392.505L250.514 390.257C250.285 390.141 250.041 390.057 249.788 390.008V390.008C247.612 389.583 246.782 386.907 248.338 385.326L259.031 374.456C259.49 373.99 260.036 373.619 260.638 373.363L264.129 371.882C264.914 371.549 265.25 370.619 264.859 369.861V369.861C264.462 369.092 263.488 368.832 262.761 369.302L259.726 371.265L254.235 374.815L246.921 380.507C244.039 382.749 239.814 380.968 239.408 377.34V377.34C239.301 376.39 239.489 375.43 239.945 374.59L241.124 372.418C242.043 370.725 243.34 369.267 244.914 368.157L258.628 358.483L266.315 354.223Z" fill="#FFF9E4"/>
<path d="M49.1601 377.983L64.4542 370.336L76.7808 363.146C77.3012 362.842 77.8515 362.593 78.4231 362.403V362.403C80.0021 361.876 81.6985 361.811 83.3132 362.215L84.2543 362.45C84.8899 362.609 85.5062 362.837 86.0921 363.13V363.13C86.9553 363.562 87.7433 364.129 88.4258 364.812L89.5803 365.966L89.834 366.22C91.1198 367.506 92.4953 368.699 93.95 369.79V369.79C95.4048 370.881 96.7803 372.074 98.0661 373.36L100.505 375.798L107.059 383.445L108.77 385.583C110.482 387.724 112.924 389.157 115.628 389.607V389.607C117.181 389.866 118.661 390.452 119.971 391.325L124.538 394.37L124.703 394.501C128.214 397.31 131.27 400.644 133.764 404.384L134.37 405.294L137.356 411.266C137.549 411.651 137.812 411.997 138.132 412.284V412.284C140.806 414.692 138.456 419.07 134.972 418.171L115.507 413.148C114.974 413.01 114.43 412.926 113.881 412.895L100.529 412.154C96.9203 411.953 93.3138 412.59 89.9915 414.013V414.013C88.267 414.753 86.4601 415.282 84.6094 415.59L81.9182 416.039C76.8694 416.88 71.7121 416.828 66.6814 415.885L59.3846 414.517C57.6775 414.197 56.0331 413.604 54.5149 412.76V412.76C49.803 410.142 46.7066 405.348 46.259 399.976L45.8828 395.462V384.107C45.8828 381.646 47.1126 379.348 49.1601 377.983V377.983Z" fill="#FFF9E4"/>
<path d="M299.403 339.727C299.257 339.52 299.511 339.268 299.717 339.415L301.663 340.799L309.574 347.23L323.512 357.591L330.292 362.593L333.306 365.094L336.276 367.598C336.532 367.813 336.89 367.86 337.193 367.716L337.227 367.7C337.372 367.632 337.49 367.518 337.565 367.376V367.376C337.719 367.083 337.66 366.722 337.419 366.494L335.971 365.121C335.952 365.103 335.935 365.083 335.919 365.063V365.063C335.584 364.64 335.999 364.039 336.513 364.202L338.116 364.709C338.174 364.727 338.233 364.74 338.294 364.749L343.477 365.451L348.367 366.716C350.628 367.301 352.839 368.066 354.978 369.004L357.002 369.892C359.332 370.914 361.569 372.138 363.686 373.55L367.059 375.798V375.798C368.607 376.648 368.776 378.806 367.38 379.888L351.794 391.961C350.33 393.095 348.673 393.955 346.903 394.501L338.131 397.205C337.197 397.493 336.198 397.486 335.268 397.187L334.51 396.943C333.742 396.695 332.905 396.776 332.199 397.167V397.167C330.68 398.007 328.767 397.346 328.091 395.747L322.811 383.258C322.639 382.852 322.073 382.828 321.868 383.218V383.218C321.735 383.47 321.829 383.782 322.078 383.919L328.786 387.602L332.085 388.906C332.822 389.197 333.306 389.909 333.306 390.701V390.701C333.306 391.012 333.231 391.319 333.087 391.595L332.405 392.9C330.398 396.744 325.675 398.263 321.803 396.31L320.928 395.869C320.392 395.598 319.884 395.274 319.413 394.902L319.261 394.782C318.334 394.049 317.533 393.17 316.89 392.179L314.848 389.031L311.081 381.528L307.69 376.526L306.237 374.23C305.704 373.387 305.341 372.448 305.169 371.466V371.466C305.092 371.03 305.053 370.587 305.053 370.144V368.803C305.053 368.712 305.04 368.622 305.014 368.536L304.672 367.401C304.543 366.974 305.014 366.617 305.39 366.855V366.855C305.417 366.872 305.441 366.891 305.464 366.912L307.314 368.666L311.081 373.311L316.883 379.159C317.033 379.309 317.169 379.472 317.291 379.645L317.633 380.132C317.783 380.345 317.985 380.515 318.22 380.627L318.76 380.883C319.111 381.049 319.531 380.939 319.755 380.621V380.621C319.969 380.316 319.944 379.903 319.694 379.626L317.861 377.598L313.341 373.311L309.197 368.666L306.56 365.808L303.547 362.95L301.663 361.164L300.176 359.471C299.914 359.173 299.595 358.932 299.237 358.763V358.763C298.614 358.467 298.117 357.961 297.833 357.333L297.359 356.284C297.216 355.968 297.143 355.625 297.143 355.278V355.278C297.143 354.488 297.525 353.746 298.169 353.288L298.649 352.946L300.19 352.134C301.379 351.508 302.287 350.456 302.733 349.188V349.188C303.249 347.719 303.097 346.097 302.315 344.75L299.403 339.727V339.727Z" fill="#FFF9E4"/>
<path d="M46.9746 406.387L55.7141 414.034L73.1931 417.311L85.2099 416.219L96.1343 411.849L113.613 412.941L126.723 416.219L134.37 418.404H137.647L139.832 416.219V414.034L149.664 423.866L160.588 439.16L164.958 440.252L166.05 436.975L158.403 428.235L161.68 430.42L164.958 431.513L172.605 434.79L180.252 438.067L186.807 442.437L199.37 453.908L207.563 458.824L210.84 462.101L211.933 465.378V468.656L205.378 471.933H198.823L188.991 474.118H179.159H162.773H139.832L122.353 476.303L92.857 479.58L68.8233 471.933L54.6217 452.269L46.9746 436.975V406.387Z" fill="#A5C083"/>
<path d="M48.0684 375.543L52.9282 373.45L57.4141 371.705L58.3872 371.286C60.9747 370.172 63.475 368.865 65.8672 367.377L66.7599 366.821L70.1244 364.728L73.8627 362.286L75.6682 361.233C76.4547 360.774 77.2991 360.423 78.179 360.189V360.189C79.0361 359.96 79.9193 359.844 80.8064 359.844H81.3636C82.341 359.844 83.3152 359.956 84.2671 360.178V360.178C85.3018 360.42 86.3024 360.789 87.2456 361.278L87.4309 361.374C88.598 361.98 89.677 362.741 90.6381 363.638L92.5542 365.426L99.6569 371.705L102.648 374.845L106.76 379.032L107.079 379.372C108.608 381.003 110.002 382.756 111.246 384.613V384.613M111.246 384.613V384.613C112.487 386.004 113.56 387.537 114.44 389.18L116.105 392.288L118.348 396.126L119.47 397.87M111.246 384.613L116.105 386.706L118.722 388.102L120.591 388.974M123.208 406.591L126.199 414.964L127.32 419.15L128.816 423.337L130.685 428.57L132.18 432.407L134.423 437.291L136.666 441.826L138.535 444.617L139.657 446.012M151.993 422.29L146.386 416.359L143.751 414.105C142.525 413.057 141.479 411.815 140.654 410.429V410.429M151.993 422.29V422.29C152.491 422.987 152.932 423.722 153.311 424.49L153.596 425.065C154.517 426.928 155.678 428.663 157.048 430.226L158.348 431.709L160.217 434.151L162.46 436.593L163.582 437.64M151.993 422.29L154.914 424.054C157.201 425.435 159.582 426.651 162.041 427.694L162.46 427.872L164.832 429.043C167.484 430.353 170.234 431.453 173.058 432.331L173.302 432.407L175.256 433.109C177.19 433.803 179.066 434.648 180.867 435.637V435.637C183.293 436.968 185.571 438.554 187.663 440.366L189.75 442.175L195.358 447.408L196.479 448.305M171.059 476.712H181.526L189.002 476.363L197.227 475.317L203.956 473.921L207.793 473.154C208.721 472.968 209.622 472.673 210.479 472.273L211.313 471.884C211.887 471.616 212.416 471.259 212.879 470.827V470.827C214.102 469.685 214.797 468.087 214.797 466.414V465.705C214.797 464.02 214.242 462.382 213.218 461.044L212.928 460.665V460.665C210.445 458.116 207.652 455.891 204.613 454.042L200.591 451.594L196.479 448.305M120.591 388.974V388.974C121.833 389.553 122.997 390.284 124.058 391.151L124.332 391.374C125.077 391.983 125.867 392.535 126.694 393.026V393.026C128.592 394.153 130.285 395.596 131.698 397.292L132.18 397.87L134.423 401.359L138.161 406.243L140.654 410.429M120.591 388.974L126.573 386.009L131.059 383.567L135.918 380.078L140.031 376.938L144.143 374.147L147.507 372.403L149.959 370.878C150.565 370.501 151.217 370.203 151.898 369.991V369.991C152.705 369.74 153.544 369.612 154.389 369.612H154.925C155.957 369.612 156.984 369.747 157.98 370.013V370.013C158.722 370.21 159.443 370.48 160.133 370.817L166.946 374.147L168.697 375.237C169.771 375.905 170.896 376.489 172.06 376.983V376.983C173.631 377.649 175.128 378.478 176.526 379.457L177.414 380.078L180.778 381.822L182.094 382.437C182.708 382.723 183.273 383.104 183.769 383.567V383.567M183.769 383.567L180.778 384.962L175.918 386.706L169.937 389.497L165.451 392.288L159.844 396.126L154.236 401.01L150.124 404.149L145.264 406.94L140.654 410.429M183.769 383.567V383.567C186.754 382.406 189.631 380.985 192.366 379.32L196.853 376.59L209.189 368.566L219.656 361.24L220.295 360.909C222.105 359.97 224.026 359.261 226.012 358.798V358.798L227.545 358.511C229.012 358.238 230.501 358.1 231.993 358.1V358.1M231.993 358.1L234.504 355.236C235.072 354.588 235.693 353.989 236.36 353.444L237.785 352.28C238.158 351.976 238.578 351.735 239.029 351.566V351.566C239.805 351.277 240.648 351.212 241.459 351.38L242.44 351.584C243.197 351.741 243.927 352.008 244.605 352.378L248.068 354.263L252.554 356.705L255.544 358.798L256.292 359.495M231.993 358.1L230.498 360.891L229.376 362.635M218.909 368.566L214.797 371.357L210.311 374.845L205.451 377.985L200.965 381.125L195.731 384.264L190.124 386.706L187.692 387.738C186.575 388.212 185.511 388.801 184.516 389.497V389.497M180.03 391.242L177.414 392.986L174.423 395.428L171.806 397.521M153.489 373.101L153.27 373.611C152.919 374.429 152.446 375.189 151.867 375.865V375.865C151.454 376.346 151.094 376.872 150.795 377.431L150.685 377.636C150.312 378.332 149.865 378.985 149.351 379.584L148.629 380.427L147.883 381.587C147.633 381.975 147.337 382.33 147 382.645V382.645C146.351 383.251 145.856 384.003 145.557 384.839L145.44 385.169C145.323 385.496 145.182 385.814 145.018 386.12L144.517 387.055M139.283 392.637L138.535 393.335M79.4701 364.728L77.601 367.519L76.1056 369.961L74.2365 373.45L72.3673 377.287V377.287C71.125 379.142 70.0892 381.128 69.2786 383.208L69.0029 383.916L67.5075 387.404L65.2646 392.288L64.9633 392.907C63.9213 395.046 62.6431 397.062 61.1524 398.916V398.916L60.9794 399.207C59.8517 401.101 58.5316 402.875 57.0403 404.498V404.498L55.1711 406.243L52.9282 408.336L50.3113 410.429M78.7224 398.568L80.5916 400.661L82.4608 402.754L83.9561 404.498L85.4514 406.591L87.3205 409.382L88.442 411.127L89.1897 412.522M91.4327 418.104V418.104C92.1778 419.726 92.7318 421.43 93.0835 423.18L93.6757 426.128V426.128C94.422 429.146 94.9164 432.221 95.1537 435.321L95.171 435.547L96.2925 442.524L97.3117 446.804C97.6286 448.135 98.0475 449.439 98.5645 450.706L100.392 455.183C100.647 455.806 101.034 456.367 101.526 456.827V456.827M153.115 422.639L156.853 419.848L161.339 415.662L165.451 412.173L170.685 407.289L177.04 402.754L186.012 397.521L193.862 394.032L205.825 389.148L216.292 384.962L223.769 380.776L231.993 375.194L240.591 369.961L252.554 362.286V362.286C254.545 360.661 256.654 359.185 258.864 357.873L263.768 354.96L273.862 349.727L274.874 349.273C280.88 346.574 286.36 342.83 291.058 338.215V338.215L292.631 336.992C293.065 336.654 293.6 336.471 294.15 336.471V336.471C294.574 336.471 294.99 336.579 295.36 336.786L296.666 337.517M296.666 337.517L298.909 340.657L300.778 343.797L302.238 346.25C302.51 346.707 302.737 347.189 302.916 347.689L303.227 348.561C303.338 348.871 303.394 349.198 303.394 349.527V349.527C303.394 350.322 303.064 351.082 302.483 351.625L302.224 351.866C302.008 352.067 301.769 352.242 301.511 352.387L298.593 354.02C298.308 354.18 298.055 354.394 297.85 354.649V354.649C297.341 355.283 297.164 356.123 297.374 356.909L297.413 357.053V357.053C297.657 358.189 298.242 359.222 299.091 360.015L300.404 361.24L303.768 364.728M296.666 337.517L300.03 339.61L303.394 341.882L307.507 344.843L311.619 347.983L318.722 353.565L323.208 356.705L328.441 360.542L332.179 363.333M303.768 364.728L304.516 367.17L305.017 369.04C305.18 369.647 305.214 370.282 305.119 370.904V370.904C304.97 371.877 305.141 372.872 305.606 373.74L306.385 375.194L308.628 379.032L312.74 385.311L315.357 390.195L316.441 392.049C317.212 393.369 318.101 394.616 319.095 395.777V395.777L320.965 398.568M303.768 364.728L304.408 365.266C306.471 366.998 308.407 368.877 310.202 370.886L311.245 372.054L314.983 375.892L317.974 379.032L319.843 380.776M332.179 363.333L335.17 365.775L337.413 367.868M332.179 363.333L338.245 364.619C339.682 364.924 341.14 365.123 342.606 365.214V365.214C344.869 365.355 347.108 365.752 349.282 366.397L354.235 367.868L362.46 371.008L370.684 374.496L380.404 378.683L391.618 383.916L394.115 385.468C394.692 385.828 395.233 386.242 395.731 386.706V386.706M284.703 352.169L282.46 354.263L280.217 356.705L277.226 359.495L274.983 361.589L273.488 362.984M263.768 370.31L261.66 371.583C258.834 373.289 256.164 375.24 253.68 377.414L251.432 379.38L246.198 384.962L240.217 390.893L234.61 396.126L228.628 400.312L219.656 405.545L211.058 410.778L205.077 413.917L201.339 416.011L200.591 416.359M260.778 386.358L258.435 388.271C256.013 390.248 253.761 392.423 251.7 394.773L251.432 395.079L248.068 399.265L246.198 401.359M242.46 406.94L242.001 407.369C240.318 408.939 238.466 410.316 236.479 411.475V411.475L234.61 412.871M277.974 390.544L275.357 393.335L273.114 395.428M289.563 361.24L286.946 368.217L283.955 377.287L281.712 382.52L279.469 386.706M323.955 383.916V383.916C326.195 385.309 328.539 386.526 330.967 387.556L331.432 387.753L335.17 389.497L339.282 390.893L343.021 392.288M196.479 448.305L204.329 444.966L215.544 440.431L236.105 431.012L243.493 427.349C246.536 425.84 249.71 424.609 252.975 423.672L262.647 420.895L280.591 415.662L295.17 413.22L299.656 411.898M325.45 409.731H314.786C310.94 409.731 307.104 410.125 303.338 410.906L302.273 411.127L299.656 411.898M325.45 409.731V409.731C325.693 409.731 325.929 409.653 326.124 409.507L329.713 406.828C332.051 405.082 334.859 404.077 337.774 403.941L338.711 403.897C340.084 403.833 341.445 403.609 342.766 403.23L345.637 402.405L350.123 401.707M325.45 409.731L323.955 411.127L314.609 421.243L309.751 425.958C306.769 428.853 303.475 431.409 299.93 433.58L293.301 437.64L277.6 445.664L264.89 450.548V450.548C261.936 452.156 258.663 453.091 255.305 453.287L254.423 453.339V453.339C252.212 453.568 250.087 454.322 248.226 455.537L247.32 456.129L242.834 459.618L240.452 461.523C240.296 461.648 240.13 461.761 239.956 461.861L236.151 464.046C235.757 464.273 235.694 464.816 236.027 465.127V465.127C236.079 465.175 236.138 465.215 236.202 465.245L237.6 465.897L237.844 466.011C239.653 466.855 241.626 467.293 243.622 467.293V467.293C244.589 467.293 245.554 467.396 246.499 467.599L247.817 467.883C249.228 468.187 250.661 468.374 252.102 468.443L264.516 469.037L279.843 470.084L294.049 470.781L306.385 471.828L325.824 472.177H346.677C346.731 472.177 346.786 472.181 346.84 472.19L346.981 472.211C347.801 472.339 348.113 473.355 347.506 473.921V473.921L345.264 475.666L339.282 479.503L334.496 483.225C333.206 484.228 332.045 485.388 331.04 486.677L330.307 487.618C329.812 488.253 329.397 488.944 329.069 489.679L328.601 490.728C328.012 492.046 327.875 493.52 328.209 494.924V494.924C328.363 495.57 328.614 496.19 328.954 496.761L329.309 497.357C329.971 498.47 330.823 499.458 331.827 500.277L332.212 500.592C332.936 501.183 333.718 501.7 334.546 502.135L339.282 504.621M344.516 407.289L348.696 403.017C351.137 400.521 353.806 398.258 356.666 396.256L358.348 395.079V395.079C359.568 394.168 361.024 393.626 362.543 393.517L365.076 393.335H371.805H374.048M366.198 406.243L370.684 398.568L371.422 397.535C372.921 395.436 374.597 393.47 376.432 391.657L379.501 388.624C379.852 388.277 380.241 387.97 380.661 387.709V387.709C381.714 387.054 382.93 386.706 384.171 386.706H406.198M406.198 386.706L420.03 379.032L427.367 375.151C429.948 373.786 432.631 372.624 435.392 371.675L438.347 370.659L451.805 367.868L460.029 366.124M406.198 386.706L402.411 391.871C401.697 392.845 400.911 393.766 400.061 394.625V394.625C397.94 396.77 396.231 399.287 395.02 402.05L393.488 405.545L389.749 413.569M456.291 376.241L454.546 377.978C451.977 380.535 449.661 383.334 447.629 386.336L446.198 388.451M444.329 392.986L439.095 404.149L433.114 416.011L429.001 423.685L428.545 424.324C426.363 427.379 423.88 430.209 421.135 432.771L419.282 434.5M326.198 418.801L325.409 419.476C322.951 421.579 320.71 423.925 318.722 426.476V426.476L318.161 427.435C317.042 429.35 316.103 431.365 315.357 433.454V433.454M311.245 440.78V440.78C309.258 443.329 306.979 445.637 304.455 447.656L303.021 448.803L299.656 451.245L295.17 453.687M363.581 410.778L362.086 414.266L359.095 420.546L357.226 425.779L354.983 432.058L352.74 437.989L350.123 442.873L349.414 443.912C348.148 445.769 346.641 447.45 344.933 448.912V448.912C343.661 450 342.285 450.96 340.824 451.777L339.282 452.641L336.665 453.687M370.684 465.549L376.291 463.804L382.273 462.409L385.509 461.654C387.336 461.227 389.129 460.664 390.871 459.967V459.967M415.917 452.641V452.641C418.652 451.713 421.471 451.053 424.334 450.672L425.263 450.548M457.039 442.524L462.646 441.477L469.749 439.733M243.955 440.431L249.937 437.64L257.413 434.849L267.507 430.314L275.357 426.825M283.581 423.685L284.687 422.949C285.692 422.278 286.757 421.701 287.867 421.223V421.223C289.979 420.313 291.917 419.046 293.598 417.477L295.17 416.011L299.656 411.898M138.535 476.712V476.712C141.509 475.787 144.605 475.317 147.719 475.317H149.75M144.517 551.019L145.054 550.876C148.172 550.045 151.384 549.624 154.61 549.624V549.624M165.077 547.182L174.423 545.786L182.023 544.165C185.669 543.387 189.387 542.995 193.115 542.995V542.995M193.115 542.995L195.799 541.465C198.48 539.935 201.376 538.817 204.389 538.148V538.148C206.586 537.66 208.829 537.414 211.079 537.414H222.647H227.881M193.115 542.995L189.002 547.182M218.161 545.786L221.199 542.951C222.163 542.052 223.202 541.237 224.305 540.517L224.714 540.25C225.825 539.524 226.855 538.68 227.785 537.734L228.005 537.509C229.649 535.836 231.622 534.522 233.8 533.651V533.651C235.083 533.138 236.298 532.47 237.418 531.662L242.588 527.934C243.498 527.277 244.458 526.692 245.458 526.183L246.333 525.737C247.484 525.151 248.708 524.722 249.973 524.46V524.46C250.943 524.258 251.931 524.157 252.922 524.157H255.17H256.013C256.939 524.157 257.858 524.323 258.725 524.647V524.647C259.096 524.785 259.456 524.952 259.802 525.145L261.152 525.901M272.367 534.972V534.972C271.397 532.709 269.707 530.831 267.559 529.629L267.133 529.39L263.021 526.948L261.152 525.901M274.983 539.856V539.856C276.726 541.946 278.314 544.16 279.735 546.481L280.591 547.879L281.712 549.624M259.283 542.995L256.292 544.391L252.752 545.592C252.373 545.721 251.976 545.786 251.576 545.786V545.786C250.533 545.786 249.54 546.231 248.845 547.009L248.068 547.879L245.451 551.368V551.368C244.46 552.754 243.252 553.971 241.874 554.972L241.839 554.997C241.009 555.6 240.123 556.121 239.194 556.555L237.6 557.299L237.036 557.615C236.18 558.094 235.216 558.345 234.236 558.345V558.345M229.002 561.834L226.385 563.229V563.229C224.4 564.387 222.272 565.281 220.056 565.89L219.287 566.101C217.791 566.512 216.326 567.029 214.903 567.648L211.432 569.16M261.152 525.901L267.133 524.855L267.494 524.787C269.724 524.371 272.014 524.394 274.236 524.855V524.855V524.855C276.472 525.55 278.621 526.497 280.644 527.676L283.581 529.39L289.189 532.878L295.918 538.111M295.918 538.111L303.021 543.693L308.254 547.879L309.376 548.926M295.918 538.111L300.404 539.856L300.942 540.126C303.818 541.571 306.812 542.767 309.892 543.701L320.217 546.833L334.871 550.05C337.807 550.695 340.687 551.574 343.483 552.678L345.782 553.585C347.925 554.432 350.002 555.44 351.992 556.601V556.601M378.534 517.529L385.637 520.319L392.74 522.761M407.319 529.39L412.927 531.483L415.945 532.891C418.912 534.275 421.752 535.916 424.434 537.793L424.889 538.111M85.4514 534.972V494.504M85.4514 432.407V441.128M78.7224 437.64L78.9788 437.6C80.2733 437.399 81.4775 436.813 82.4353 435.919V435.919C82.701 435.671 82.9456 435.402 83.1665 435.113L84.127 433.858C84.51 433.358 84.8293 432.812 85.0776 432.233V432.233M85.4514 431.36L85.0776 432.233M85.0776 432.233L85.8743 433.441C86.3384 434.145 86.8843 434.791 87.5006 435.366L87.9464 435.782C88.2756 436.089 88.6406 436.356 89.0336 436.576V436.576C89.8713 437.045 90.8153 437.291 91.7755 437.291H91.8065M77.2271 447.408L77.6681 447.326C78.6119 447.149 79.5146 446.799 80.3299 446.292V446.292C80.9989 445.875 81.6002 445.359 82.113 444.761L82.8346 443.919L85.4514 441.128M85.4514 441.128L86.5883 442.897C87.3228 444.039 88.1967 445.086 89.1897 446.012V446.012V446.012C90.4032 446.918 91.877 447.408 93.3914 447.408H93.6757M85.4514 441.128V450.199M74.2365 457.874H74.9279C76.4271 457.874 77.8928 457.43 79.1403 456.598V456.598C79.6079 456.287 80.0396 455.924 80.4272 455.517L82.8346 452.99L84.7037 450.897L85.4514 450.199M85.4514 450.199L87.6944 453.687L89.2867 455.598C89.9591 456.405 90.8218 457.031 91.797 457.421V457.421C92.5441 457.72 93.3414 457.874 94.1461 457.874H95.5448H96.2925M85.4514 450.199V459.269M74.2365 467.293H75.6816C76.2105 467.293 76.7363 467.213 77.2414 467.056V467.056C78.2081 466.755 79.0673 466.181 79.7155 465.404L81.3393 463.455L83.9561 460.665L85.4514 459.269M85.4514 459.269L87.6944 462.409L88.2513 463.318C88.8695 464.328 89.6999 465.191 90.6849 465.848V465.848C91.4276 466.343 92.2465 466.712 93.109 466.942L93.2657 466.984C94.0342 467.189 94.8261 467.293 95.6214 467.293H96.2925M85.4514 459.269V467.991M71.9935 476.712L74.0914 476.549C75.6573 476.427 77.1657 475.906 78.4725 475.035V475.035C78.8877 474.758 79.2796 474.448 79.6444 474.107L82.8346 471.13L85.4514 467.991M85.4514 467.991L88.442 471.828L90.3112 473.921L90.455 474.055C92.0597 475.553 94.1093 476.486 96.2925 476.712V476.712H97.7878M85.4514 467.991V476.712M71.2458 485.782H73.7405C74.5637 485.782 75.381 485.644 76.158 485.372V485.372C77.3489 484.955 78.4119 484.237 79.2437 483.289L81.3393 480.898L83.7634 478.636C84.3887 478.053 84.9542 477.408 85.4514 476.712V476.712M85.4514 476.712V476.712C86.9379 479.024 88.771 481.094 90.8865 482.849L91.0589 482.992L92.777 484.417C93.8284 485.289 95.191 485.693 96.548 485.535V485.535C97.121 485.468 97.7012 485.501 98.263 485.632L98.9093 485.782M85.4514 476.712V484.736M69.3767 495.899H72.2669C73.5542 495.899 74.8158 495.539 75.9089 494.859V494.859C76.2884 494.623 76.644 494.35 76.9708 494.045L80.2178 491.015L80.3788 490.865C82.0106 489.342 83.4618 487.637 84.7037 485.782V485.782L85.4514 484.736M85.4514 484.736L88.442 488.573L90.3112 491.015L92.4373 493.283C92.7639 493.631 93.1173 493.953 93.4943 494.247V494.247C94.5974 495.104 95.8825 495.698 97.2508 495.982L97.5047 496.034C98.1901 496.177 98.8882 496.248 99.5881 496.248H100.778M85.4514 484.736V494.504M70.1244 507.761H70.9631C71.6482 507.761 72.3316 507.69 73.0025 507.551V507.551C74.5509 507.23 76.0016 506.548 77.2366 505.56L77.9748 504.97L80.5557 502.746C82.0531 501.457 83.2192 499.826 83.9561 497.992V497.992L85.4514 494.504M85.4514 494.504L87.0459 498.472C87.4764 499.543 88.0452 500.553 88.738 501.477V501.477C89.7767 502.862 91.0771 504.029 92.5654 504.913L94.4233 506.016V506.016C95.6489 506.702 97.03 507.063 98.4347 507.063H98.9093H100.778" stroke="#4B4B4B" stroke-width="4.36975" stroke-linecap="round"/>
<path d="M51.0605 486.828H66.0138M56.2942 496.247H61.9016M54.0512 505.667H63.0231M55.5465 515.086H63.0231M72.1062 515.086H81.3408M66.0138 523.807H80.5931M91.4342 515.783H97.7893M88.0698 529.738H95.1725M106.761 523.807H114.711M103.771 533.575H117.976" stroke="#4B4B4B" stroke-width="4.36975" stroke-linecap="round"/>
<path d="M122.833 442.175V449.85M122.833 545.089V506.366M106.758 516.831H108.684C110.834 516.831 112.928 516.151 114.668 514.889V514.889C115.126 514.556 115.555 514.187 115.952 513.783L119.468 510.203L122.833 506.366M122.833 506.366L127.318 511.598L128.821 513.201C129.56 513.989 130.407 514.669 131.336 515.221V515.221C133.111 516.275 135.137 516.831 137.201 516.831H138.907M122.833 506.366V493.458M106.758 505.668H108.23C110.67 505.668 113.042 504.866 114.981 503.385V503.385C115.726 502.816 116.397 502.155 116.976 501.417L120.216 497.295L122.833 493.458M122.833 493.458L126.462 499.103C127.032 499.989 127.689 500.815 128.424 501.57L129.261 502.429C130.441 503.641 131.892 504.556 133.494 505.099V505.099C134.603 505.476 135.766 505.668 136.938 505.668H138.907M122.833 493.458V483.69M108.253 495.551V495.551C111.84 495.551 115.276 494.109 117.79 491.551L117.973 491.365L118.34 490.894C120.084 488.656 121.59 486.241 122.833 483.69V483.69M122.833 483.69L123.8 486.097C124.642 488.194 125.882 490.108 127.45 491.734L127.803 492.1C128.227 492.539 128.686 492.944 129.175 493.309V493.309C131.125 494.764 133.493 495.551 135.926 495.551H137.038M122.833 483.69V474.968M110.122 485.783V485.783C112.536 485.783 114.871 484.926 116.711 483.364L117.241 482.915C117.728 482.502 118.182 482.051 118.597 481.566L119.116 480.961C120.342 479.53 121.381 477.948 122.206 476.254L122.833 474.968M122.833 474.968L124.574 479.302C124.907 480.131 125.338 480.917 125.857 481.644L126.169 482.081C126.926 483.14 127.908 484.02 129.044 484.656V484.656C130.364 485.395 131.851 485.783 133.364 485.783H135.169M122.833 474.968V466.944M110.122 476.713H111.53C113.971 476.713 116.303 475.702 117.973 473.922V473.922L120.963 470.084L122.833 466.944M122.833 466.944L124.011 469.51C124.714 471.041 125.709 472.42 126.941 473.569L127.183 473.796C128.016 474.572 128.966 475.214 129.998 475.695V475.695C131.434 476.365 133 476.713 134.585 476.713H135.169M122.833 466.944V459.27M111.244 466.944V466.944C114.332 466.944 117.271 465.613 119.307 463.29L119.468 463.107L122.833 459.27M122.833 459.27L125.823 463.107L126.477 463.852C128.2 465.818 130.686 466.944 133.3 466.944V466.944M122.833 459.27V449.85M113.861 456.828L114.735 456.605C116.85 456.067 118.771 454.942 120.277 453.362V453.362C120.734 452.882 121.149 452.365 121.517 451.815L122.833 449.85M122.833 449.85L124.68 452.652C125.43 453.79 126.453 454.721 127.655 455.363V455.363C128.177 455.641 128.727 455.861 129.296 456.021L132.178 456.828M116.104 446.711L117.848 445.971C119.396 445.314 120.733 444.242 121.711 442.873V442.873V442.873C122.23 442.066 123.414 442.079 123.915 442.897L124.21 443.379C124.288 443.506 124.383 443.623 124.493 443.725L125.335 444.511C125.66 444.814 126.009 445.09 126.379 445.337L127.196 445.881C128.007 446.422 128.96 446.711 129.935 446.711V446.711" stroke="#4B4B4B" stroke-width="4.36975" stroke-linecap="round"/>
<path d="M160.965 457.175V464.85M160.965 554.856V521.366M144.891 531.831H146.817C148.967 531.831 151.061 531.151 152.801 529.889V529.889C153.259 529.556 153.688 529.187 154.084 528.783L157.601 525.203L160.965 521.366M160.965 521.366L165.451 526.598L166.954 528.201C167.693 528.989 168.54 529.669 169.469 530.221V530.221C171.243 531.275 173.27 531.831 175.334 531.831H177.04M160.965 521.366V508.458M144.891 520.668H146.363C148.803 520.668 151.175 519.866 153.114 518.385V518.385C153.859 517.816 154.53 517.155 155.109 516.417L158.349 512.295L160.965 508.458M160.965 508.458L164.595 514.103C165.164 514.989 165.822 515.815 166.557 516.57L167.394 517.429C168.574 518.641 170.025 519.556 171.627 520.099V520.099C172.736 520.476 173.899 520.668 175.071 520.668H177.04M160.965 508.458V498.69M146.386 510.551V510.551C149.973 510.551 153.409 509.109 155.923 506.551L156.106 506.365L156.472 505.894C158.217 503.656 159.723 501.241 160.965 498.69V498.69M160.965 498.69L161.933 501.097C162.775 503.194 164.015 505.108 165.583 506.734L165.936 507.1C166.36 507.539 166.819 507.944 167.308 508.309V508.309C169.258 509.764 171.626 510.551 174.059 510.551H175.171M160.965 498.69V489.968M148.255 500.783V500.783C150.669 500.783 153.004 499.926 154.844 498.364L155.374 497.915C155.861 497.502 156.314 497.051 156.73 496.566L157.249 495.961C158.475 494.53 159.514 492.948 160.339 491.254L160.965 489.968M160.965 489.968L162.707 494.302C163.04 495.131 163.471 495.917 163.99 496.644L164.302 497.081C165.059 498.14 166.04 499.02 167.177 499.656V499.656C168.497 500.395 169.984 500.783 171.497 500.783H173.302M160.965 489.968V481.944M148.255 491.713H149.663C152.104 491.713 154.436 490.702 156.106 488.922V488.922L159.096 485.084L160.965 481.944M160.965 481.944L162.143 484.51C162.847 486.041 163.842 487.42 165.074 488.569L165.316 488.796C166.149 489.572 167.098 490.214 168.13 490.695V490.695C169.567 491.365 171.132 491.713 172.717 491.713H173.302M160.965 481.944V474.27M149.377 481.944V481.944C152.465 481.944 155.404 480.613 157.44 478.29L157.601 478.107L160.965 474.27M160.965 474.27L163.956 478.107L164.61 478.852C166.332 480.818 168.819 481.944 171.433 481.944V481.944M160.965 474.27V464.85M151.993 471.828L152.867 471.605C154.983 471.067 156.904 469.942 158.41 468.362V468.362C158.867 467.882 159.281 467.365 159.65 466.815L160.965 464.85M160.965 464.85L162.813 467.652C163.563 468.79 164.586 469.721 165.788 470.363V470.363C166.31 470.641 166.86 470.861 167.429 471.021L170.311 471.828M154.236 461.711L155.98 460.971C157.529 460.314 158.866 459.242 159.844 457.873V457.873V457.873C160.363 457.066 161.547 457.079 162.048 457.897L162.343 458.379C162.421 458.506 162.516 458.623 162.625 458.725L163.468 459.511C163.793 459.814 164.142 460.09 164.512 460.337L165.329 460.881C166.14 461.422 167.093 461.711 168.068 461.711V461.711" stroke="#4B4B4B" stroke-width="4.36975" stroke-linecap="round"/>
<path d="M102.271 483.341H106.01M125.823 523.809H131.804M125.823 533.577H140.776M149.374 544.391H153.112M147.505 514.738H150.869M166.57 538.81H171.056M177.785 538.81H190.869M180.776 524.507H185.262M181.897 514.738H184.514M190.869 524.507H210.682M197.224 534.275H231.991M216.664 524.507H234.607M240.215 524.507H245.449M199.467 506.017H212.178M176.664 496.249H185.262M189.748 496.249H218.159M184.514 482.643H203.206M208.065 482.643H256.663M276.103 487.527H298.906M210.682 456.828H231.724C232.892 456.828 234.053 456.651 235.168 456.305V456.305C236.283 455.958 237.444 455.781 238.612 455.781H245.449M215.542 463.805H225.636M209.935 473.224H236.85M256.663 473.224H272.738M240.963 515.436H267.878M227.996 506.017H254.538M286.196 521.093H300.028M288.439 529.391H309M319.093 529.391H332.177M317.972 519.274H327.317M332.177 510.552H343.392M314.981 510.552H326.57M313.112 501.133H326.57M276.103 505.319H300.028M270.869 496.249H278.719M238.346 496.249H265.262M314.981 487.527H326.57M308.252 477.759H327.317M336.663 538.81H353.112M316.85 538.461H327.317M298.532 538.461H310.495M341.149 548.229H352.364M362.831 548.229H371.803M372.551 538.461H402.831M381.897 527.297H393.485" stroke="#4B4B4B" stroke-width="4.36975" stroke-linecap="round"/>
<path d="M359.096 453.689V461.364M359.096 556.603V517.879M343.021 528.345H344.948C347.097 528.345 349.192 527.665 350.932 526.402V526.402C351.389 526.07 351.819 525.7 352.215 525.297L355.732 521.717L359.096 517.879M359.096 517.879L363.582 523.112L365.085 524.715C365.824 525.503 366.67 526.183 367.599 526.735V526.735C369.374 527.789 371.401 528.345 373.465 528.345H375.171M359.096 517.879V504.971M343.021 517.182H344.494C346.934 517.182 349.305 516.38 351.244 514.899V514.899C351.99 514.33 352.661 513.669 353.24 512.931L356.479 508.809L359.096 504.971M359.096 504.971L362.726 510.616C363.295 511.502 363.952 512.329 364.687 513.083L365.525 513.943C366.705 515.154 368.156 516.069 369.758 516.613V516.613C370.867 516.99 372.03 517.182 373.202 517.182H375.171M359.096 504.971V495.203M344.517 507.065V507.065C348.104 507.065 351.54 505.623 354.054 503.064L354.236 502.878L354.603 502.408C356.348 500.169 357.853 497.755 359.096 495.203V495.203M359.096 495.203L360.064 497.611C360.906 499.707 362.146 501.621 363.714 503.247L364.067 503.613C364.491 504.053 364.949 504.457 365.439 504.822V504.822C367.389 506.278 369.757 507.065 372.19 507.065H373.302M359.096 495.203V486.482M346.386 497.297V497.297C348.799 497.297 351.135 496.439 352.975 494.878L353.505 494.429C353.992 494.016 354.445 493.564 354.861 493.079L355.379 492.475C356.606 491.044 357.645 489.462 358.47 487.767L359.096 486.482M359.096 486.482L360.838 490.816C361.171 491.645 361.602 492.431 362.121 493.158L362.433 493.594C363.19 494.654 364.171 495.533 365.308 496.17V496.17C366.627 496.909 368.115 497.297 369.627 497.297H371.433M359.096 486.482V478.458M346.386 488.226H347.794C350.235 488.226 352.567 487.216 354.236 485.435V485.435L357.227 481.598L359.096 478.458M359.096 478.458L360.274 481.023C360.977 482.554 361.973 483.934 363.205 485.083L363.447 485.309C364.28 486.086 365.229 486.727 366.261 487.209V487.209C367.698 487.879 369.263 488.226 370.848 488.226H371.433M359.096 478.458V470.783M347.507 478.458V478.458C350.596 478.458 353.535 477.126 355.571 474.804L355.732 474.621L359.096 470.783M359.096 470.783L362.087 474.621L362.74 475.366C364.463 477.331 366.95 478.458 369.563 478.458V478.458M359.096 470.783V461.364M350.124 468.341L350.998 468.119C353.114 467.58 355.035 466.456 356.541 464.875V464.875C356.998 464.396 357.412 463.878 357.781 463.328L359.096 461.364M359.096 461.364L360.944 464.166C361.694 465.303 362.717 466.235 363.919 466.876V466.876C364.441 467.154 364.991 467.375 365.56 467.534L368.442 468.341M352.367 458.224L354.111 457.485C355.66 456.828 356.997 455.756 357.975 454.387V454.387V454.387C358.494 453.58 359.678 453.593 360.179 454.411L360.474 454.892C360.552 455.02 360.647 455.136 360.756 455.238L361.598 456.024C361.924 456.328 362.273 456.604 362.643 456.851L363.459 457.395C364.271 457.936 365.224 458.224 366.199 458.224V458.224" stroke="#4B4B4B" stroke-width="4.36975" stroke-linecap="round"/>
<path d="M403.956 441.826V449.501M403.956 544.739V506.016M387.881 516.482H389.807C391.957 516.482 394.051 515.802 395.791 514.539V514.539C396.249 514.207 396.678 513.837 397.075 513.433L400.591 509.853L403.956 506.016M403.956 506.016L408.442 511.249L409.944 512.852C410.683 513.64 411.53 514.32 412.459 514.871V514.871C414.234 515.925 416.26 516.482 418.324 516.482H420.03M403.956 506.016V493.108M387.881 505.318H389.353C391.793 505.318 394.165 504.516 396.104 503.036V503.036C396.849 502.467 397.52 501.805 398.099 501.068L401.339 496.946L403.956 493.108M403.956 493.108L407.585 498.753C408.155 499.639 408.812 500.465 409.547 501.22L410.384 502.079C411.564 503.291 413.015 504.206 414.617 504.75V504.75C415.726 505.126 416.89 505.318 418.061 505.318H420.03M403.956 493.108V483.34M389.376 495.201V495.201C392.963 495.201 396.4 493.76 398.913 491.201L399.096 491.015L399.463 490.544C401.207 488.306 402.713 485.891 403.956 483.34V483.34M403.956 483.34L404.923 485.748C405.765 487.844 407.005 489.758 408.573 491.384L408.926 491.75C409.35 492.19 409.809 492.594 410.298 492.959V492.959C412.248 494.415 414.616 495.201 417.049 495.201H418.161M403.956 483.34V474.619M391.245 485.433V485.433C393.659 485.433 395.994 484.576 397.834 483.015L398.364 482.565C398.851 482.152 399.305 481.701 399.72 481.216L400.239 480.611C401.466 479.18 402.504 477.598 403.33 475.904L403.956 474.619M403.956 474.619L405.697 478.952C406.03 479.781 406.461 480.568 406.98 481.295L407.292 481.731C408.049 482.791 409.031 483.67 410.167 484.306V484.306C411.487 485.045 412.974 485.433 414.487 485.433H416.292M403.956 474.619V466.595M391.245 476.363H392.653C395.094 476.363 397.426 475.353 399.096 473.572V473.572L402.086 469.735L403.956 466.595M403.956 466.595L405.134 469.16C405.837 470.691 406.832 472.07 408.064 473.22L408.306 473.446C409.139 474.223 410.089 474.864 411.121 475.345V475.345C412.557 476.016 414.123 476.363 415.708 476.363H416.292M403.956 466.595V458.92M392.367 466.595V466.595C395.456 466.595 398.394 465.263 400.43 462.941L400.591 462.757L403.956 458.92M403.956 458.92L406.946 462.757L407.6 463.503C409.323 465.468 411.809 466.595 414.423 466.595V466.595M403.956 458.92V449.501M394.984 456.478L395.858 456.256C397.973 455.717 399.895 454.593 401.4 453.012V453.012C401.857 452.533 402.272 452.015 402.64 451.465L403.956 449.501M403.956 449.501L405.803 452.303C406.553 453.44 407.576 454.372 408.778 455.013V455.013C409.3 455.291 409.85 455.512 410.419 455.671L413.301 456.478M397.227 446.361L398.971 445.621C400.519 444.964 401.856 443.892 402.834 442.524V442.524V442.524C403.353 441.716 404.537 441.729 405.038 442.548L405.333 443.029C405.411 443.157 405.506 443.273 405.616 443.375L406.458 444.161C406.783 444.464 407.132 444.741 407.502 444.987L408.319 445.532C409.13 446.072 410.083 446.361 411.058 446.361V446.361" stroke="#4B4B4B" stroke-width="4.36975" stroke-linecap="round"/>
<path d="M442.088 419.499V427.174M442.088 533.227V483.689M426.014 494.155H427.94C430.09 494.155 432.184 493.475 433.924 492.212V492.212C434.382 491.88 434.811 491.51 435.207 491.106L438.724 487.526L442.088 483.689M442.088 483.689L446.574 488.922L448.077 490.524C448.816 491.313 449.663 491.993 450.592 492.544V492.544C452.367 493.598 454.393 494.155 456.457 494.155H458.163M442.088 483.689V470.781M426.014 482.991H427.486C429.926 482.991 432.298 482.189 434.237 480.709V480.709C434.982 480.139 435.653 479.478 436.232 478.741L439.472 474.618L442.088 470.781M442.088 470.781L445.718 476.426C446.287 477.312 446.945 478.138 447.68 478.893L448.517 479.752C449.697 480.964 451.148 481.879 452.75 482.423V482.423C453.859 482.799 455.022 482.991 456.194 482.991H458.163M442.088 470.781V461.013M427.509 472.874V472.874C431.096 472.874 434.532 471.433 437.046 468.874L437.229 468.688L437.595 468.217C439.34 465.979 440.846 463.564 442.088 461.013V461.013M442.088 461.013L443.056 463.421C443.898 465.517 445.138 467.431 446.706 469.057L447.059 469.423C447.483 469.862 447.942 470.267 448.431 470.632V470.632C450.381 472.088 452.749 472.874 455.182 472.874H456.294M442.088 461.013V452.291M429.378 463.106V463.106C431.792 463.106 434.127 462.249 435.967 460.688L436.497 460.238C436.984 459.825 437.437 459.374 437.853 458.889L438.372 458.284C439.598 456.853 440.637 455.271 441.462 453.577L442.088 452.291M442.088 452.291L443.83 456.625C444.163 457.454 444.594 458.241 445.113 458.968L445.425 459.404C446.182 460.464 447.164 461.343 448.3 461.979V461.979C449.62 462.718 451.107 463.106 452.62 463.106H454.425M442.088 452.291V444.268M429.378 454.036H430.786C433.227 454.036 435.559 453.026 437.229 451.245V451.245L440.219 447.407L442.088 444.268M442.088 444.268L443.266 446.833C443.97 448.364 444.965 449.743 446.197 450.893L446.439 451.119C447.272 451.896 448.221 452.537 449.253 453.018V453.018C450.69 453.688 452.256 454.036 453.84 454.036H454.425M442.088 444.268V436.593M430.5 444.268V444.268C433.588 444.268 436.527 442.936 438.563 440.614L438.724 440.43L442.088 436.593M442.088 436.593L445.079 440.43L445.733 441.176C447.456 443.141 449.942 444.268 452.556 444.268V444.268M442.088 436.593V427.174M433.116 434.151L433.99 433.928C436.106 433.39 438.027 432.266 439.533 430.685V430.685C439.99 430.205 440.404 429.688 440.773 429.138L442.088 427.174M442.088 427.174L443.936 429.975C444.686 431.113 445.709 432.045 446.911 432.686V432.686C447.433 432.964 447.983 433.185 448.552 433.344L451.434 434.151M435.359 424.034L437.103 423.294C438.652 422.637 439.989 421.565 440.967 420.196V420.196V420.196C441.486 419.389 442.67 419.402 443.171 420.221L443.466 420.702C443.544 420.83 443.639 420.946 443.748 421.048L444.591 421.834C444.916 422.137 445.265 422.414 445.635 422.66L446.452 423.205C447.263 423.745 448.216 424.034 449.191 424.034V424.034" stroke="#4B4B4B" stroke-width="4.36975" stroke-linecap="round"/>
</svg>
